<svg width="8" height="12" viewBox="0 0 8 12" fill="none" xmlns="http://www.w3.org/2000/svg">
<path d="M1.15206 0.030468C0.941125 0.10078 0.751281 0.269531 0.645813 0.480469C0.596594 0.581249 0.589563 0.630468 0.589563 0.832031C0.589563 1.24219 0.385656 1.00781 3.03644 3.66094L5.37081 6L3.03644 8.33672C0.385656 10.9922 0.589563 10.7578 0.589563 11.168C0.589563 11.3812 0.596594 11.4141 0.657531 11.5383C0.739563 11.6977 0.89425 11.85 1.05831 11.9297C1.15909 11.9812 1.20831 11.9883 1.42159 11.9883C1.64659 11.9883 1.67941 11.9836 1.79659 11.9227C1.90206 11.8664 2.42472 11.3555 4.59034 9.19219C6.80519 6.97969 7.26925 6.50391 7.33253 6.38672C7.40519 6.25312 7.40988 6.23438 7.40988 6C7.40988 5.76562 7.40519 5.74687 7.33253 5.61328C7.26925 5.49609 6.80519 5.02031 4.59034 2.80781C2.38956 0.609375 1.90206 0.133594 1.79659 0.0796871C1.68878 0.0257807 1.63253 0.0140619 1.45675 0.00703049C1.3255 0.00234318 1.21066 0.0117188 1.15206 0.030468Z" fill="#232323"/>
</svg>
