<svg width="10" height="10" viewBox="0 0 10 10" fill="none" xmlns="http://www.w3.org/2000/svg">
<g clip-path="url(#clip0_141_120)">
<path d="M2.70502 0.046875C2.56831 0.111328 2.16596 0.521484 2.10737 0.654297C2.04877 0.785156 2.04877 0.972656 2.10737 1.10352C2.14252 1.18555 2.45893 1.50977 4.04877 3.10156L5.94721 5L4.04096 6.91016C1.92768 9.02344 2.06049 8.875 2.06049 9.14062C2.06245 9.33594 2.11323 9.42383 2.36909 9.67969C2.63471 9.94531 2.73042 10 2.9394 10C3.04292 10 3.09956 9.98828 3.17377 9.95312C3.2519 9.91602 3.71284 9.46484 5.57807 7.5957C7.47456 5.69531 7.89057 5.26953 7.91206 5.20508C7.95502 5.08008 7.94526 4.86914 7.89448 4.75586C7.85737 4.67383 7.46479 4.27344 5.57026 2.37891C3.03901 -0.152344 3.20893 0 2.9394 0C2.83588 0 2.77924 0.0117188 2.70502 0.046875Z" fill="#232323"/>
</g>
<defs>
<clipPath id="clip0_141_120">
<rect width="10" height="10" fill="white"/>
</clipPath>
</defs>
</svg>
