<svg width="24" height="13" viewBox="0 0 24 13" fill="none" xmlns="http://www.w3.org/2000/svg">
<path d="M10.2433 0.88505C6.86968 1.20399 3.88237 2.51122 1.41616 4.73486C0.944482 5.16161 0.234717 5.90282 0.0774902 6.14091C-0.0258301 6.28915 -0.0258301 6.71142 0.0774902 6.85966C0.234717 7.09775 0.944482 7.83896 1.41616 8.26571C4.31362 10.8802 8.03765 12.2593 11.9054 12.147C15.3015 12.0436 18.2978 10.9341 21.0021 8.77333C21.5007 8.36903 22.6373 7.25946 22.8574 6.954C22.9787 6.78778 23.0011 6.71591 23.0011 6.50478C23.0011 6.34306 22.9742 6.21278 22.9248 6.14091C22.7675 5.90282 22.0578 5.16161 21.5861 4.73486C19.2816 2.65497 16.438 1.34774 13.3429 0.952433C12.6826 0.867081 10.8632 0.826652 10.2433 0.88505ZM12.422 2.81669C13.7697 3.16259 14.8253 4.21825 15.1892 5.58388C15.3195 6.07353 15.324 6.91806 15.1937 7.40321C14.8253 8.78681 13.7921 9.8245 12.4175 10.1884C11.9189 10.3231 11.0833 10.3231 10.5847 10.1884C9.21011 9.8245 8.1769 8.78681 7.80854 7.40321C7.68276 6.92704 7.68276 6.07353 7.80854 5.59735C8.15894 4.29462 9.07983 3.30634 10.3421 2.88857C10.989 2.67294 11.7527 2.64599 12.422 2.81669ZM7.65581 3.00536C6.91909 3.80497 6.4519 4.86513 6.33062 6.01513C6.18237 7.42118 6.69448 8.95751 7.65581 9.99071C7.79956 10.1479 7.90288 10.2737 7.8894 10.2737C7.87144 10.2737 7.63335 10.2018 7.35483 10.112C5.71069 9.58193 4.22827 8.77333 2.8896 7.67275C2.32358 7.20556 1.66323 6.57216 1.66323 6.49579C1.66323 6.41943 2.31011 5.804 2.8896 5.32782C4.21479 4.23622 5.60737 3.47255 7.25601 2.9245C7.57944 2.81669 7.85796 2.72685 7.88042 2.72685C7.89839 2.72685 7.79956 2.85263 7.65581 3.00536ZM15.6474 2.88857C17.2916 3.41864 18.774 4.22724 20.1126 5.32782C20.6652 5.78153 21.339 6.42841 21.339 6.50028C21.339 6.57216 20.6652 7.21903 20.1126 7.67275C18.774 8.77333 17.2916 9.58193 15.6474 10.112C15.3689 10.2018 15.1308 10.2737 15.1128 10.2737C15.0994 10.2737 15.2027 10.1479 15.3464 9.99071C16.3078 8.95751 16.8199 7.42118 16.6716 6.01513C16.5503 4.86962 16.0787 3.80048 15.3464 3.00536C15.2027 2.85263 15.0994 2.72685 15.1128 2.72685C15.1308 2.72685 15.3689 2.79872 15.6474 2.88857Z" fill="#A4A4A4"/>
<path d="M11.1193 4.25419C10.5847 4.34853 10.2029 4.55966 9.82104 4.97294C9.52905 5.2874 9.36733 5.60634 9.27749 6.02861C9.19663 6.42392 9.19663 6.57665 9.27749 6.97197C9.36733 7.39423 9.52905 7.71318 9.82104 8.02763C10.3017 8.54423 10.7914 8.75986 11.5011 8.75986C12.2109 8.75986 12.7005 8.54423 13.1812 8.02763C13.316 7.87939 13.4777 7.65478 13.5406 7.52451C13.6664 7.26845 13.7921 6.75634 13.7921 6.50029C13.7921 6.24423 13.6664 5.73212 13.5406 5.47607C13.3968 5.18408 13.0105 4.75732 12.714 4.56865C12.2962 4.29912 11.6179 4.16884 11.1193 4.25419ZM11.7392 5.65126C11.9324 5.70068 12.1929 5.9163 12.2873 6.0915C12.5433 6.58564 12.2603 7.19658 11.7078 7.3538C11.263 7.47509 10.7824 7.1831 10.6476 6.70693C10.5982 6.51826 10.5982 6.46435 10.6611 6.25771C10.7464 5.98818 10.9621 5.75908 11.2136 5.66923C11.4292 5.59286 11.5191 5.58837 11.7392 5.65126Z" fill="#A4A4A4"/>
</svg>
