<svg width="18" height="18" viewBox="0 0 18 18" fill="none" xmlns="http://www.w3.org/2000/svg">
<path d="M7.64963 0.028677C6.15527 0.234488 4.67434 0.838493 3.4887 1.72437C3.0726 2.03308 2.312 2.76684 1.96749 3.18293C0.97424 4.39542 0.303122 5.92557 0.0704674 7.50493C-0.0234891 8.13131 -0.0234891 9.37511 0.0704674 10.0015C0.325492 11.7509 1.09952 13.3929 2.25384 14.6501L2.5536 14.9767L2.44623 15.1199C2.11961 15.5539 1.74379 16.0863 1.6722 16.225C1.56035 16.4442 1.56035 16.8245 1.68115 17.0527C1.73037 17.1511 1.86012 17.2898 1.96302 17.3659L2.15541 17.5001H5.98525C10.0791 17.5001 9.99407 17.5046 10.9381 17.2675C12.1327 16.9722 13.4123 16.3234 14.3653 15.527C16.052 14.1222 17.1482 12.167 17.4658 10.0015C17.5598 9.37511 17.5598 8.13131 17.4658 7.50493C17.0498 4.65939 15.3048 2.22547 12.7501 0.927975C11.9358 0.511883 11.2066 0.265806 10.267 0.0868416C9.84642 0.00630569 8.09704 -0.0294857 7.64963 0.028677ZM10.003 1.4604C12.8217 1.9436 15.0901 3.99722 15.8999 6.79355C16.2355 7.95682 16.2355 9.5496 15.8999 10.7129C15.5286 11.9925 14.9156 13.0394 13.985 13.97C13.0544 14.9007 12.0074 15.5136 10.7278 15.885C9.90011 16.1221 9.63166 16.14 6.4103 16.1266L3.4529 16.1131L3.94506 15.4465L4.43721 14.7799L4.22245 14.6009C2.35674 13.0349 1.38586 11.0484 1.38586 8.789C1.38586 7.44229 1.68115 6.28797 2.30753 5.16497C3.39474 3.2232 5.32756 1.84517 7.49751 1.46487C8.191 1.34407 9.2961 1.33959 10.003 1.4604Z" fill="#A4A4A4"/>
<path d="M5.09939 7.88523C4.75041 8.03735 4.5625 8.33711 4.5625 8.75321C4.5625 9.36169 4.97412 9.72857 5.59602 9.68382C5.92711 9.66145 6.18661 9.49144 6.3432 9.20062C6.43268 9.0306 6.4461 8.95007 6.43268 8.69952C6.41479 8.33264 6.25819 8.07762 5.95395 7.91655C5.7213 7.79575 5.341 7.77785 5.09939 7.88523Z" fill="#A4A4A4"/>
<path d="M8.34363 7.89866C8.00807 8.05525 7.8291 8.35502 7.8291 8.76216C7.83358 9.31695 8.2094 9.69278 8.76867 9.69278C9.02369 9.69278 9.27424 9.6033 9.43531 9.45565C9.79324 9.12457 9.79324 8.38186 9.43531 8.05078C9.17581 7.81365 8.67918 7.74206 8.34363 7.89866Z" fill="#A4A4A4"/>
<path d="M11.5823 7.91654C11.278 8.07761 11.1214 8.33264 11.1035 8.69952C11.0856 9.07087 11.2064 9.33484 11.4883 9.5317C11.8194 9.76436 12.3563 9.74199 12.665 9.48249C13.0766 9.13351 13.0945 8.41765 12.6963 8.05077C12.4279 7.79574 11.9223 7.73758 11.5823 7.91654Z" fill="#A4A4A4"/>
</svg>
