<svg width="18" height="18" viewBox="0 0 18 18" fill="none" xmlns="http://www.w3.org/2000/svg">
<path d="M7.93127 1.18124C6.82384 1.3289 5.61095 1.7789 4.69337 2.38007C3.07619 3.44179 1.89494 5.05898 1.38517 6.92226C1.05119 8.1457 1.02658 9.57656 1.32189 10.8281C1.51173 11.6402 1.93712 12.6351 2.38009 13.3066C3.63166 15.2016 5.59689 16.4566 7.87502 16.8117C8.33205 16.882 9.80158 16.8715 10.2481 16.7941C11.0531 16.6535 11.7668 16.425 12.4629 16.084C13.7461 15.4582 14.843 14.4914 15.6199 13.3066C15.8906 12.8918 16.3125 12.0269 16.4672 11.5664C16.7555 10.7121 16.8785 9.93515 16.8785 8.98945C16.8785 7.66406 16.6184 6.57773 16.0278 5.41406C14.8535 3.10429 12.607 1.51523 10.0406 1.17773C9.53439 1.11093 8.41994 1.11445 7.93127 1.18124ZM9.80861 2.32382C10.2656 2.37304 10.9828 2.54882 11.4258 2.7246C13.7145 3.62812 15.3106 5.63906 15.6621 8.05429C15.7324 8.54648 15.7324 9.46054 15.6586 9.94218C15.5461 10.7016 15.293 11.4855 14.9555 12.1254C14.7867 12.4418 14.4492 12.9726 14.4141 12.9726C14.4035 12.9726 14.3543 12.8566 14.3121 12.7195C14.2664 12.5789 14.1363 12.2836 14.0238 12.0586C13.2117 10.4766 11.7106 9.36913 9.95978 9.07031C9.09494 8.92265 8.07541 8.99648 7.23869 9.26718C5.83947 9.71718 4.6547 10.7332 3.97619 12.0586C3.86369 12.2836 3.73361 12.5789 3.68791 12.7195C3.64572 12.8566 3.5965 12.9726 3.58595 12.9726C3.5508 12.9726 3.2133 12.4418 3.04455 12.1254C2.71056 11.4961 2.44689 10.684 2.33791 9.9457C2.26759 9.46054 2.26759 8.53945 2.33791 8.05429C2.72462 5.41757 4.61955 3.24843 7.16838 2.52773C8.04025 2.28515 8.83126 2.22187 9.80861 2.32382ZM9.8297 10.2129C10.4168 10.3254 11.0496 10.5926 11.5664 10.9476C11.9285 11.1937 12.4594 11.7316 12.702 12.0973C13.0641 12.6422 13.3488 13.3523 13.4121 13.8621L13.4367 14.0555L13.2153 14.2418C12.6844 14.6812 11.8652 15.1348 11.1481 15.3809C10.125 15.7289 8.79611 15.8203 7.72033 15.6094C6.6797 15.4055 5.5547 14.8816 4.78478 14.2418L4.5633 14.0555L4.58791 13.8621C4.65119 13.3523 4.93595 12.6422 5.29806 12.0973C5.54064 11.7316 6.0715 11.1937 6.43361 10.9441C7.07345 10.5082 7.76603 10.2516 8.57814 10.1461C8.80666 10.118 9.54142 10.1566 9.8297 10.2129Z" fill="#232323"/>
<path d="M8.29688 2.88282C7.30547 3.13946 6.51094 3.93751 6.25782 4.93594C6.1629 5.31915 6.15938 5.93087 6.25782 6.31407C6.51094 7.31602 7.30899 8.11407 8.31094 8.36719C8.69415 8.46212 9.30587 8.46212 9.68907 8.36719C10.6875 8.11407 11.4926 7.30899 11.7422 6.31407C11.8406 5.93087 11.8371 5.31563 11.7422 4.93594C11.4856 3.92344 10.7016 3.13946 9.68907 2.88282C9.3129 2.7879 8.66954 2.7879 8.29688 2.88282ZM9.45704 4.03243C9.73477 4.10977 9.90001 4.20469 10.1109 4.40157C10.4801 4.74962 10.6523 5.13985 10.6523 5.62149C10.6523 6.54962 9.92462 7.27735 9.00001 7.27735C8.51485 7.27735 8.12462 7.10508 7.77657 6.73594C7.48477 6.42657 7.34766 6.07501 7.34766 5.62501C7.34766 5.16094 7.48477 4.81993 7.80118 4.48946C8.25118 4.01485 8.82422 3.85665 9.45704 4.03243Z" fill="#232323"/>
</svg>
