<svg width="22" height="22" viewBox="0 0 22 22" fill="none" xmlns="http://www.w3.org/2000/svg">
<g clip-path="url(#clip0_0_144)">
<path d="M9.26407 0.0816879C9.06641 0.214891 8.98047 0.382469 8.98047 0.644579C8.98047 0.773485 9.12657 2.75005 9.30703 5.04028C9.4875 7.32622 9.625 9.20825 9.61211 9.22544C9.55625 9.277 8.87305 9.06645 8.47344 8.87309C7.96641 8.62817 7.75157 8.48208 7.32618 8.07817C7.13711 7.8977 6.93516 7.71723 6.875 7.67856C6.73321 7.57973 6.3336 7.57973 6.18321 7.68286C6.11875 7.72153 5.78789 8.10395 5.44844 8.52934L4.82539 9.30708L4.48594 9.38012C3.33438 9.62934 2.39766 10.5747 2.15703 11.7305L2.08399 12.0743H1.78321C1.44805 12.0743 1.29766 12.143 1.15586 12.3579C1.08282 12.4696 1.07422 12.577 1.07422 13.4793V14.4805H0.743363C0.373832 14.4805 0.227738 14.545 0.0816441 14.7641C0.00430038 14.8844 3.50765e-06 15.0133 3.50765e-06 17.3551C3.50765e-06 20.0922 -0.00429337 20.0665 0.287894 20.6422C0.494144 21.0547 0.945316 21.5059 1.35782 21.7122C1.97227 22.0215 1.25039 22 10.6606 22C18.8977 22 19.1469 21.9957 19.2672 21.9184C19.3316 21.8754 19.4262 21.7809 19.4691 21.7165C19.5465 21.6004 19.5508 21.4887 19.5508 20.0536V18.5196H19.8559C20.2082 18.5196 20.3672 18.4465 20.5004 18.2317C20.582 18.1028 20.6508 17.3165 21.2953 9.53051C21.682 4.82114 22 0.842234 22 0.687548C22 0.378172 21.927 0.219187 21.7164 0.0816879C21.5961 0.00434303 21.3941 4.76837e-05 15.4902 4.76837e-05C9.58633 4.76837e-05 9.38438 0.00434303 9.26407 0.0816879ZM20.625 1.34067C20.625 1.47388 20.5305 2.61255 20.5133 2.69848L20.4961 2.79302L15.4773 2.78442L10.4629 2.77153L10.4113 2.16997C10.3856 1.83911 10.3598 1.50395 10.3598 1.42661L10.3555 1.28911H15.4902C19.4949 1.28911 20.625 1.302 20.625 1.34067ZM20.3887 4.28403C20.3672 4.49028 20.2813 5.44848 20.2813 5.50864C20.2813 5.53012 18.1242 5.54301 15.4902 5.54301H10.6992L10.682 5.44419C10.6691 5.39262 10.652 5.17348 10.6348 4.96294C10.6219 4.74809 10.6004 4.4645 10.5832 4.327L10.5574 4.08208H15.4859H20.4145L20.3887 4.28403ZM20.1652 6.96958C20.1481 7.12426 19.5508 14.4247 19.5508 14.459C19.5508 14.4719 18.468 14.4805 17.1445 14.4805H14.7383V13.4793C14.7383 12.577 14.7297 12.4696 14.6566 12.3579C14.5106 12.1387 14.3645 12.0743 14.0078 12.0743H13.6856L13.5652 11.6918C13.2344 10.6477 12.4051 9.80981 11.3652 9.47466C10.9356 9.33286 10.9871 9.47895 10.8926 8.16411C10.8582 7.65708 10.8152 7.15005 10.8023 7.03403L10.7766 6.83208H15.4773H20.1781L20.1652 6.96958ZM7.66993 9.97739C8.45196 10.3813 9.075 10.5489 10.0117 10.6133C10.8754 10.6735 11.1891 10.7723 11.6273 11.1204C11.8508 11.2965 12.1129 11.6446 12.2246 11.911L12.2891 12.0743H7.86758H3.4418L3.49766 11.8809C3.69961 11.2149 4.28828 10.7379 5.01016 10.652C5.19922 10.6305 5.40977 10.5832 5.47852 10.5489C5.55157 10.5102 5.82657 10.2051 6.09727 9.86567L6.58711 9.25122L6.93516 9.51333C7.12422 9.65942 7.45938 9.86567 7.66993 9.97739ZM13.4492 13.9219V14.4805H7.90625H2.36328V13.9219V13.3633H7.90625H13.4492V13.9219ZM14.4719 17.7118C14.459 19.2286 14.4418 19.6926 14.3988 19.8086C14.2484 20.1911 13.9348 20.4961 13.5566 20.6293C13.2988 20.7196 2.47071 20.7196 2.21289 20.6293C1.83477 20.4961 1.5211 20.1911 1.37071 19.8086C1.32774 19.6926 1.31055 19.2286 1.29766 17.7118L1.28477 15.7696H7.88477H14.4848L14.4719 17.7118ZM19.4219 15.9071C19.4219 15.9844 19.4004 16.311 19.3703 16.6375L19.3231 17.2305H17.5441H15.7695V16.5V15.7696H17.5957H19.4219V15.9071ZM18.2617 19.6153V20.711H16.8609C15.7566 20.711 15.4645 20.6981 15.4816 20.6551C15.7523 20.045 15.7438 20.0879 15.7609 19.2801L15.7781 18.5196H17.0199H18.2617V19.6153Z" fill="#232323"/>
<path d="M5.48281 17.6559C5.28516 17.7891 5.19922 17.9523 5.19922 18.2188C5.19922 18.4852 5.28516 18.6484 5.48281 18.7816C5.60313 18.859 5.72773 18.8633 7.90625 18.8633C10.0848 18.8633 10.2094 18.859 10.3297 18.7816C10.5273 18.6484 10.6133 18.4852 10.6133 18.2188C10.6133 17.9523 10.5273 17.7891 10.3297 17.6559C10.2094 17.5785 10.0848 17.5742 7.90625 17.5742C5.72773 17.5742 5.60313 17.5785 5.48281 17.6559Z" fill="#232323"/>
</g>
<defs>
<clipPath id="clip0_0_144">
<rect width="22" height="22" fill="white"/>
</clipPath>
</defs>
</svg>
