<svg width="22" height="22" viewBox="0 0 22 22" fill="none" xmlns="http://www.w3.org/2000/svg">
<path d="M10.8496 1.37932C10.7637 1.40081 10.4973 1.63713 10.1063 2.03675C9.7711 2.3805 9.42735 2.71135 9.34571 2.77581C9.25977 2.84026 8.89024 3.03792 8.52071 3.22268L7.8461 3.55354L6.99532 2.91331L6.14024 2.27737H5.05313H3.96602L3.73399 2.44065C3.60508 2.53089 3.14532 2.87464 2.71133 3.1969C2.13555 3.63089 1.91211 3.82425 1.86915 3.92737C1.83477 4.00471 1.72735 4.48596 1.62422 4.99299L1.44375 5.92112L1.20313 5.96838C0.343755 6.14026 -0.133199 7.01253 0.180473 7.85042C0.348051 8.30159 0.902348 8.72268 1.33204 8.72268C1.43086 8.72268 1.46094 8.74846 1.49961 8.86018C1.55118 9.02346 3.48047 15.9844 3.48047 16.0102C3.48047 16.0188 3.39454 16.0274 3.28711 16.0274C3.06368 16.0274 2.86172 16.1176 2.79297 16.2379C2.76719 16.2895 2.75 16.7535 2.75 17.4324V18.5453L2.88321 18.6742L3.01211 18.7989L3.81133 18.8203L4.61055 18.8418L4.66211 19.018C4.86836 19.7227 5.5129 20.35 6.24336 20.5606C6.56563 20.6551 7.18438 20.6551 7.50665 20.5606C8.24571 20.3457 8.87735 19.727 9.0879 19.018L9.13946 18.8418H11H12.8606L12.9121 19.018C13.1184 19.7227 13.7629 20.35 14.4934 20.5606C14.8156 20.6551 15.4344 20.6551 15.7566 20.5606C16.4957 20.3457 17.1273 19.727 17.3379 19.018L17.3895 18.8418L18.1887 18.8203L18.9879 18.7989L19.1168 18.6742L19.25 18.5453V17.4324C19.25 16.7535 19.2328 16.2895 19.207 16.2379C19.1383 16.1176 18.9363 16.0274 18.7129 16.0274C18.6055 16.0274 18.5195 16.0188 18.5195 16.0102C18.5195 15.9715 20.2941 9.56917 20.4188 9.16096L20.552 8.72268H20.7152C21.1793 8.72268 21.7766 8.2887 21.927 7.84182C22.0086 7.60979 22.0215 7.15003 21.957 6.91799C21.8883 6.67307 21.6777 6.37659 21.4543 6.21331C21.2481 6.06292 20.8699 5.92971 20.6551 5.92971C20.5262 5.92971 20.5477 5.98987 20.3199 5.02737C20.2469 4.7094 20.1609 4.40003 20.1309 4.33987C20.0363 4.1594 19.0652 3.23128 18.9363 3.2012C18.8031 3.16682 18.5023 3.23987 17.9609 3.42893L17.6387 3.54495L17.2391 2.96917C17.0199 2.6512 16.8051 2.3676 16.7664 2.33753C16.7277 2.30745 16.3281 2.19573 15.877 2.08831C14.6781 1.80042 14.6137 1.78753 14.4977 1.84339C14.4418 1.86487 14.0594 2.14417 13.6426 2.45354L12.8863 3.02073L12.057 2.20003C11.6016 1.74456 11.202 1.37503 11.1633 1.37503C11.1246 1.37503 11.0688 1.36643 11.0344 1.35784C11.0043 1.34925 10.9184 1.35784 10.8496 1.37932ZM11.6746 3.18831L12.3234 3.84573L12.3406 4.51175C12.3535 5.28088 12.3492 5.26799 12.7746 5.6719L13.041 5.92971H11.9152C11.2922 5.92971 10.7852 5.91253 10.7852 5.89534C10.7852 5.87385 10.8367 5.71487 10.8969 5.5387C11.0645 5.04885 11.043 4.92854 10.5961 4.04338L10.218 3.29573L10.5961 2.9176C10.8066 2.70706 10.9871 2.53518 11 2.53518C11.0129 2.53518 11.3137 2.83167 11.6746 3.18831ZM15.5117 2.99924L16.1777 3.15823L16.4098 3.49768C16.5344 3.67815 16.6203 3.84573 16.6031 3.86721C16.5816 3.8844 16.4055 3.95315 16.2121 4.01331C15.8211 4.14221 15.6578 4.24964 15.5891 4.42151C15.5547 4.51175 15.3356 5.37542 15.2324 5.83088C15.2109 5.92542 15.1895 5.92971 14.8113 5.92971H14.416L13.8703 5.38401L13.3203 4.83401V4.37424V3.91018L14.0379 3.37307C14.4289 3.07659 14.7727 2.83596 14.7984 2.83596C14.8242 2.84026 15.1465 2.90901 15.5117 2.99924ZM6.41524 3.69963L7.05118 4.18089L6.75469 4.48596C6.44961 4.79963 6.42383 4.8512 6.1961 5.54299C6.08008 5.89104 6.06719 5.90823 5.93829 5.92112C5.80508 5.93401 5.80508 5.93401 5.3711 5.07034C4.86407 4.06917 4.9543 4.14651 4.125 3.99612C3.82852 3.94456 3.56211 3.8887 3.53633 3.87151C3.50196 3.85432 3.63516 3.72542 3.89727 3.53206L4.31407 3.22268H5.04883H5.7793L6.41524 3.69963ZM9.73243 4.46878L10.0332 5.07034L9.88711 5.50003L9.74102 5.92971H8.41329H7.08555L7.11563 5.83088C7.24883 5.3969 7.31329 5.29807 7.7 4.91135C8.06954 4.54612 8.14688 4.49456 8.74415 4.19378C9.10079 4.0176 9.39727 3.87151 9.41016 3.87151C9.42305 3.86721 9.56915 4.13792 9.73243 4.46878ZM18.975 4.52034L19.2801 4.83401L19.3961 5.30667C19.4606 5.56448 19.5207 5.8137 19.5336 5.85237C19.5551 5.92542 19.4563 5.92971 17.875 5.92971H16.1992L16.2207 5.83088C16.2336 5.77932 16.2895 5.56018 16.341 5.34964L16.4398 4.96292L17.5313 4.58909C18.1328 4.38713 18.6356 4.21526 18.6484 4.21526C18.6613 4.21096 18.8074 4.35276 18.975 4.52034ZM3.97891 4.94573L4.24102 4.99729L4.46016 5.44417C4.58477 5.68909 4.6836 5.89534 4.6836 5.90823C4.6836 5.92112 4.17227 5.92971 3.54922 5.92971H2.41915L2.49649 5.5301C2.54375 5.31526 2.59961 5.03596 2.6211 4.91565L2.66836 4.69651L3.19258 4.79963C3.48047 4.8512 3.83282 4.91995 3.97891 4.94573ZM20.7195 6.91799C21.0547 7.01253 21.1578 7.36057 20.9301 7.61409L20.8055 7.75589H11H1.19454L1.06993 7.61409C0.850786 7.36917 0.945317 7.01253 1.25899 6.92229C1.45665 6.86643 20.5133 6.86213 20.7195 6.91799ZM19.5078 8.75276C19.5078 8.77424 19.0609 10.4157 18.5109 12.4051L17.5098 16.0274H11H4.49024L3.48907 12.4051C2.93907 10.4157 2.49219 8.77424 2.49219 8.75276C2.49219 8.71409 19.5078 8.71409 19.5078 8.75276ZM4.91563 17.0887C4.77813 17.2992 4.6836 17.5012 4.65782 17.6559C4.64063 17.7418 4.60625 17.8235 4.58047 17.8406C4.55469 17.8578 4.34415 17.875 4.11641 17.875H3.69532V17.4239V16.9727H4.34415H4.99297L4.91563 17.0887ZM7.41211 17.0973C7.88047 17.3035 8.20704 17.802 8.20704 18.309C8.20704 18.4637 8.17696 18.6785 8.13829 18.7903C8.04805 19.0524 7.73868 19.3961 7.45938 19.5422C7.27032 19.641 7.18868 19.6582 6.875 19.6582C6.56133 19.6582 6.47969 19.641 6.29063 19.5422C6.01133 19.3961 5.70196 19.0524 5.61172 18.7903C5.35391 18.0383 5.80079 17.209 6.56133 17.0156C6.78477 16.9598 7.18868 16.9985 7.41211 17.0973ZM13.1098 17.1961C13.041 17.3207 12.9551 17.527 12.9121 17.6473L12.8391 17.875H11H9.16094L9.0879 17.6473C9.04493 17.527 8.95899 17.3207 8.89024 17.1961L8.76563 16.9727H11H13.2344L13.1098 17.1961ZM15.6621 17.0973C16.1305 17.3035 16.457 17.802 16.457 18.309C16.457 18.4637 16.427 18.6785 16.3883 18.7903C16.2981 19.0524 15.9887 19.3961 15.7094 19.5422C15.5203 19.641 15.4387 19.6582 15.125 19.6582C14.8113 19.6582 14.7297 19.641 14.5406 19.5422C14.2613 19.3961 13.952 19.0524 13.8617 18.7903C13.6039 18.0383 14.0508 17.209 14.8113 17.0156C15.0348 16.9598 15.4387 16.9985 15.6621 17.0973ZM18.3047 17.4239V17.875H17.8879C17.6559 17.875 17.4453 17.8578 17.4195 17.8406C17.3938 17.8235 17.3551 17.7418 17.3379 17.6602C17.3207 17.5785 17.2434 17.3895 17.1617 17.2391L17.0156 16.9727H17.6602H18.3047V17.4239Z" fill="#232323"/>
<path d="M6.54844 17.9738C6.4625 18.0512 6.42813 18.1242 6.41524 18.2875C6.39375 18.4723 6.40664 18.5195 6.50977 18.6398C6.70743 18.8762 7.06836 18.8633 7.26172 18.6141C7.41211 18.425 7.33907 18.0297 7.13711 17.918C6.98243 17.8363 6.67735 17.8664 6.54844 17.9738Z" fill="#232323"/>
<path d="M14.9016 17.9008C14.6352 18.0426 14.5664 18.4422 14.777 18.6485C14.9961 18.8719 15.2539 18.8719 15.473 18.6485C15.6922 18.4293 15.6063 18.0125 15.3184 17.8922C15.1336 17.8149 15.0477 17.8192 14.9016 17.9008Z" fill="#232323"/>
</svg>
