<svg width="22" height="22" viewBox="0 0 22 22" fill="none" xmlns="http://www.w3.org/2000/svg">
<g clip-path="url(#clip0_0_180)">
<path d="M10.7293 0.0472655C10.5488 0.154687 10.5273 0.287891 10.5273 1.375C10.5273 2.21289 10.5402 2.43633 10.5918 2.53516C10.6734 2.69414 10.7766 2.75 11 2.75C11.2234 2.75 11.3266 2.69414 11.4082 2.53516C11.4598 2.43633 11.4727 2.21289 11.4727 1.375C11.4727 0.279297 11.4512 0.146094 11.2621 0.0429688C11.1547 -0.0128906 10.8281 -0.0128906 10.7293 0.0472655Z" fill="#232323"/>
<path d="M3.41171 3.08089C3.36014 3.08948 3.26561 3.15394 3.20116 3.22269C3.04647 3.38167 3.03358 3.66097 3.16679 3.85003C3.21835 3.91878 3.5535 4.26683 3.91874 4.62776C4.46874 5.16917 4.60624 5.28519 4.74374 5.30667C5.09179 5.37542 5.37538 5.09183 5.30663 4.74378C5.28515 4.60628 5.16913 4.46878 4.62772 3.91878C4.26679 3.55355 3.92733 3.22269 3.86718 3.17972C3.74686 3.09808 3.54921 3.05081 3.41171 3.08089Z" fill="#232323"/>
<path d="M18.3047 3.08089C18.2359 3.09378 17.918 3.37737 17.4582 3.83714C16.8309 4.46878 16.7191 4.60198 16.6891 4.74378C16.6289 5.09183 16.9082 5.37542 17.2562 5.30667C17.3937 5.28519 17.5312 5.16917 18.0812 4.62776C18.8762 3.84144 18.9191 3.78558 18.9191 3.53636C18.9191 3.22698 18.6398 3.02073 18.3047 3.08089Z" fill="#232323"/>
<path d="M12.0957 3.74683C11.9883 3.83277 6.67304 10.8796 6.48398 11.1847C6.35937 11.391 6.37656 11.6144 6.52695 11.782L6.65156 11.9238L8.31015 11.9367L9.96875 11.9496V12.0441C9.96875 12.0957 9.79687 13.4406 9.58203 15.0347C9.16523 18.1886 9.16953 18.1027 9.41445 18.2789C9.56484 18.382 9.85273 18.3691 9.98593 18.2488C10.0461 18.1972 11.0773 16.6632 12.2719 14.8457C15.8512 9.40582 15.5977 9.80972 15.5977 9.61636C15.5977 9.47886 15.5676 9.41441 15.4516 9.2984L15.3055 9.1523H13.6684C12.766 9.1523 12.0312 9.14371 12.0312 9.13082C12.0312 9.11793 12.216 8.00504 12.4394 6.66011C12.6629 5.31519 12.8477 4.15504 12.8477 4.07769C12.8477 3.98316 12.8047 3.90152 12.7016 3.7984C12.5211 3.61793 12.2848 3.59644 12.0957 3.74683ZM11.2793 7.76871C10.9957 9.47886 10.9656 9.74097 11.043 9.88277C11.1418 10.0675 11.2191 10.0761 12.7488 10.0976L14.2184 10.1191L12.3449 12.9636C11.3137 14.532 10.4672 15.8082 10.4586 15.7996C10.4543 15.7953 10.5746 14.8714 10.725 13.75C10.8754 12.6285 10.9957 11.6058 11 11.4812C11 11.2836 10.9828 11.232 10.8754 11.1246L10.7508 11H9.30273C8.50781 11 7.86328 10.9828 7.87187 10.9613C7.89765 10.8968 11.5328 6.06285 11.5457 6.07574C11.5543 6.08433 11.434 6.84488 11.2793 7.76871Z" fill="#232323"/>
<path d="M0.206244 10.5961C0.141791 10.6305 0.0687439 10.6949 0.0429626 10.7422C-0.0128967 10.8453 -0.0128967 11.1547 0.0429626 11.2621C0.146088 11.4512 0.279291 11.4727 1.37499 11.4727C2.4707 11.4727 2.6039 11.4512 2.70703 11.2621C2.76288 11.1547 2.76288 10.8453 2.70703 10.7379C2.6039 10.5488 2.47499 10.5273 1.3664 10.5273C0.52851 10.5316 0.300775 10.5445 0.206244 10.5961Z" fill="#232323"/>
<path d="M19.4562 10.5961C19.3918 10.6305 19.3187 10.6949 19.293 10.7422C19.2371 10.8453 19.2371 11.1547 19.293 11.2621C19.3961 11.4512 19.5293 11.4727 20.625 11.4727C21.7207 11.4727 21.8539 11.4512 21.957 11.2621C22.0129 11.1547 22.0129 10.8453 21.957 10.7379C21.8539 10.5488 21.725 10.5273 20.6164 10.5273C19.7785 10.5316 19.5508 10.5445 19.4562 10.5961Z" fill="#232323"/>
<path d="M4.61484 16.7406C4.53749 16.7749 4.17226 17.1187 3.79414 17.5011C3.08945 18.2144 3.02929 18.3046 3.08085 18.571C3.11093 18.7214 3.27851 18.889 3.4289 18.9191C3.6996 18.9707 3.78124 18.9191 4.54179 18.1585C5.16484 17.5398 5.28085 17.398 5.30664 17.2605C5.34531 17.0499 5.26367 16.8566 5.09609 16.7535C4.9371 16.6546 4.79101 16.6503 4.61484 16.7406Z" fill="#232323"/>
<path d="M16.9039 16.7534C16.7363 16.8566 16.6547 17.0499 16.6934 17.2605C16.7148 17.3894 16.8394 17.5355 17.3723 18.0812C18.1586 18.8761 18.2144 18.9191 18.4637 18.9191C18.773 18.9191 18.9965 18.6355 18.9148 18.3347C18.8762 18.1972 17.4883 16.7706 17.3336 16.7148C17.1703 16.6503 17.0543 16.6632 16.9039 16.7534Z" fill="#232323"/>
<path d="M10.7293 19.2972C10.5488 19.4047 10.5273 19.5379 10.5273 20.625C10.5273 21.7207 10.5488 21.8539 10.7379 21.957C10.8453 22.0129 11.1547 22.0129 11.2621 21.957C11.4512 21.8539 11.4727 21.7207 11.4727 20.625C11.4727 19.5293 11.4512 19.3961 11.2621 19.2929C11.1547 19.2371 10.8281 19.2371 10.7293 19.2972Z" fill="#232323"/>
</g>
<defs>
<clipPath id="clip0_0_180">
<rect width="22" height="22" fill="white"/>
</clipPath>
</defs>
</svg>
