<svg width="22" height="22" viewBox="0 0 22 22" fill="none" xmlns="http://www.w3.org/2000/svg">
<g clip-path="url(#clip0_0_140)">
<path d="M20.2555 0.103125C20.0965 0.171875 17.0242 2.46641 16.9211 2.59531C16.7922 2.75 16.8266 2.93047 17.0328 3.20976L17.2176 3.46328L16.7406 3.82852C16.3238 4.14648 16.2465 4.22812 16.1262 4.46445C15.9844 4.73086 15.9844 4.73516 15.9844 5.3668C15.9844 5.86523 15.9715 6.01562 15.9156 6.09297C15.8813 6.14453 15.6922 6.30781 15.4988 6.45391C15.3055 6.6 15.125 6.7332 15.0992 6.75469C15.0648 6.77617 14.7598 6.40664 14.1797 5.62891C13.6555 4.92851 13.2559 4.43437 13.1699 4.38281C12.8477 4.18516 12.3535 4.24101 12.1086 4.50312C12.0484 4.56758 11.3137 5.89102 10.4801 7.44219L8.96328 10.2695L4.59336 10.2781L0.223438 10.291L0.111719 10.3941L0 10.4973V12.4867C0 13.5781 0.0128906 14.5062 0.0257813 14.5449C0.0945313 14.7211 0.236328 14.7383 1.61133 14.7383H2.92188V16.1777V17.6129L1.54258 17.6258L0.163281 17.6387L0.0816406 17.7418C0.00429688 17.8363 0 17.9352 0 19.8516C0 21.7422 0.00429688 21.8625 0.0773438 21.927C0.150391 21.9957 0.846484 22 9.18672 22H18.2145L18.2789 21.9055C18.3391 21.8238 18.3477 21.5789 18.3477 20.1008V18.3906H19.7012H21.059L21.1621 18.2832L21.2695 18.1801V16.1777V14.1754L21.1621 14.0723L21.059 13.9648H19.7012H18.3477V12.2504V10.5316L18.2445 10.4156C18.15 10.3039 18.1199 10.2953 17.7289 10.2781L17.3164 10.2609V10.0805C17.3164 9.98164 17.282 9.83555 17.2391 9.75391C17.1961 9.67227 16.8094 9.13516 16.3797 8.55937C15.9457 7.98359 15.5848 7.48945 15.5719 7.45937C15.559 7.425 15.7008 7.2918 15.9371 7.11562C16.6762 6.56562 16.7535 6.41523 16.7578 5.55586C16.7578 5.18633 16.7793 4.90273 16.8094 4.83398C16.8523 4.73516 17.6129 4.125 17.6902 4.125C17.7117 4.125 17.7719 4.19375 17.8277 4.27539C18.0297 4.57187 18.1156 4.64062 18.3004 4.64062C18.4637 4.64062 18.5969 4.55039 20.118 3.40312C21.6691 2.23867 21.7723 2.15703 21.884 1.93789C21.9742 1.75312 22 1.6457 22 1.42227C22 1.08711 21.9141 0.880859 21.6391 0.519922C21.3727 0.176172 21.1063 0.0429688 20.6938 0.0429688C20.5262 0.047266 20.3285 0.0730457 20.2555 0.103125ZM20.8871 0.867968C20.9258 0.898046 21.016 1.00547 21.0891 1.1C21.2437 1.30195 21.2652 1.49101 21.1535 1.62422C21.0676 1.71875 18.5023 3.64805 18.4207 3.67383C18.3777 3.69102 17.8277 2.99922 17.8148 2.91328C17.8105 2.89609 18.4293 2.41914 19.1855 1.85195C20.6078 0.78203 20.7109 0.721874 20.8871 0.867968ZM13.5781 6.14023C14.0293 6.7418 14.3902 7.24883 14.3859 7.26602C14.3773 7.2875 14.0336 7.55391 13.6211 7.86328C13.1699 8.19844 12.8477 8.47344 12.8176 8.54219C12.7016 8.7957 12.882 9.06641 13.1613 9.06641C13.316 9.06641 13.4148 9.00625 14.068 8.51641C14.4719 8.21562 14.8242 7.95352 14.85 7.93633C14.9102 7.90195 16.5602 10.0805 16.5301 10.1578C16.5172 10.1879 16.3582 10.2437 16.1691 10.2824C15.9844 10.3211 14.4633 10.6434 12.7832 11C11.1074 11.3566 9.61211 11.6746 9.46602 11.7047C9.25547 11.7477 9.18672 11.752 9.15234 11.7133C9.12227 11.6746 9.58203 10.7852 10.7035 8.69687C12.766 4.85977 12.6758 5.01875 12.7188 5.03594C12.7402 5.04453 13.127 5.53867 13.5781 6.14023ZM5.84375 12.5039V13.9648H3.30859H0.773438V13.2602V12.5555L1.20742 12.5383C1.61992 12.5211 1.65 12.5168 1.74453 12.4051C1.88203 12.2418 1.88203 12.0184 1.74023 11.8809C1.6457 11.782 1.60703 11.7734 1.20312 11.7734H0.773438V11.4082V11.043H3.30859H5.84375V12.5039ZM8.44336 11.2664C8.26289 11.6488 8.31875 11.9754 8.61094 12.2676C8.74414 12.3965 8.85156 12.4609 9.00625 12.4996C9.24687 12.5555 9.18242 12.5641 10.6648 12.2504C11.2277 12.1301 11.6961 12.0312 11.709 12.0312C11.7219 12.0312 11.7305 12.4652 11.7305 12.998V13.9648H9.17383H6.61719V12.5039V11.043H7.58398H8.54648L8.44336 11.2664ZM17.5742 12.5039V13.9648H15.0391H12.5039V12.9121C12.5039 12.332 12.5082 11.8594 12.5168 11.8594C12.5211 11.8594 13.3676 11.6746 14.3945 11.4555L16.2637 11.0516L16.9211 11.0473L17.5742 11.043V12.5039ZM8.76562 16.1777V17.6172H6.23047H3.69531V16.1777V14.7383H6.23047H8.76562V16.1777ZM14.6523 16.1777V17.6172H12.0957H9.53906V16.1777V14.7383H12.0957H14.6523V16.1777ZM20.4961 16.1777V17.6172H17.9609H15.4258V16.1777V14.7383H17.9609H20.4961V16.1777ZM5.84375 19.8301V21.2695H3.30859H0.773438V19.8301V18.3906H3.30859H5.84375V19.8301ZM11.7305 19.8301V21.2695H9.17383H6.61719V19.8301V18.3906H9.17383H11.7305V19.8301ZM17.5742 19.8301V21.2695H15.0391H12.5039V19.8301V18.3906H15.0391H17.5742V19.8301Z" fill="#232323"/>
<path d="M2.66407 11.8594C2.53946 11.984 2.51368 12.1472 2.59102 12.3148C2.69415 12.5254 2.84883 12.5555 3.76837 12.5383C4.52462 12.5254 4.5504 12.5211 4.65782 12.4222C4.80821 12.2805 4.81251 12.0012 4.67071 11.868C4.57618 11.7777 4.53751 11.7734 3.66094 11.7734C2.81016 11.7734 2.74571 11.7777 2.66407 11.8594Z" fill="#232323"/>
</g>
<defs>
<clipPath id="clip0_0_140">
<rect width="22" height="22" fill="white"/>
</clipPath>
</defs>
</svg>
