<svg width="22" height="22" viewBox="0 0 22 22" fill="none" xmlns="http://www.w3.org/2000/svg">
<g clip-path="url(#clip0_0_118)">
<path d="M8.76133 0.124657L8.63672 0.249268V0.996923V1.74028L8.34883 1.82192C7.84609 1.96372 7.18867 2.22153 6.65156 2.49224L6.13594 2.75434L5.6332 2.2645C5.12188 1.76177 4.97578 1.67583 4.76094 1.74028C4.70508 1.75747 4.00898 2.41919 3.20977 3.21411C1.70156 4.71802 1.65859 4.77387 1.74023 5.03598C1.75742 5.08755 1.99375 5.35825 2.26016 5.63325L2.75 6.12739L2.45352 6.72895C2.29023 7.05552 2.0582 7.61411 1.93789 7.97075L1.72305 8.61528L0.966797 8.63677L0.20625 8.65825L0.103125 8.77856L0 8.89888V11V13.1012L0.103125 13.2215L0.20625 13.3418L0.966797 13.3633L1.72305 13.3848L1.93789 14.0293C2.0582 14.3817 2.29023 14.9446 2.45352 15.2754L2.7543 15.8727L2.28164 16.3497C1.77031 16.8653 1.71875 16.9383 1.71875 17.1532C1.71875 17.2778 1.85625 17.4282 3.18828 18.7645C4.74375 20.32 4.77383 20.3458 5.04883 20.2383C5.11758 20.2125 5.38828 19.9805 5.65039 19.7184L6.13164 19.25L6.7332 19.5465C7.06836 19.7184 7.61836 19.9418 7.975 20.0622L8.61523 20.2727L8.63672 21.0333L8.6582 21.7938L8.77852 21.8969L8.89883 22H10.0504H11.202L11.318 21.8883L11.4297 21.7723V19.6325V17.4883H13.5695L15.7051 17.4926L16.3066 18.5969C16.6375 19.2028 16.9039 19.7399 16.9039 19.7872C16.8996 19.8344 16.8652 19.9504 16.8266 20.045C16.7277 20.3028 16.7406 20.784 16.848 21.0848C16.977 21.4243 17.3336 21.7809 17.673 21.9098C18.2402 22.1161 18.8375 21.9915 19.2543 21.5747C19.5551 21.2739 19.6797 20.9731 19.6797 20.5391C19.6797 20.1051 19.5551 19.8043 19.2543 19.5036C18.9234 19.1727 18.6313 19.061 18.1543 19.0911C17.9652 19.104 17.7719 19.1211 17.7289 19.1297C17.6602 19.1383 17.5312 18.9278 16.9855 17.9395C16.6246 17.2778 16.2852 16.702 16.2379 16.659C16.152 16.5903 15.9715 16.586 13.7887 16.586H11.4297V15.9157V15.2454L11.3094 15.1293C11.202 15.0219 11.1461 15.0047 10.6906 14.9618C9.69805 14.8586 8.9375 14.5149 8.24141 13.8446C6.8707 12.5297 6.63438 10.4458 7.67422 8.84302C8.3875 7.73442 9.63789 7.04263 10.9227 7.04263C12.057 7.04263 13.0066 7.42505 13.793 8.20278C14.1453 8.55513 14.3129 8.79145 14.5879 9.34575C14.7727 9.71098 14.8285 9.78833 14.966 9.85278C15.0992 9.91723 15.1508 9.92583 15.2711 9.88286C15.6492 9.75825 15.6793 9.46606 15.3699 8.85161C15.2582 8.62817 15.0648 8.3102 14.9402 8.14692C14.8156 7.98364 14.691 7.81606 14.6566 7.7688C14.6008 7.69575 14.6566 7.69145 16.4184 7.69145C17.4711 7.69145 18.3047 7.67427 18.3906 7.64848C18.5023 7.61841 18.7215 7.42934 19.2027 6.9438L19.8602 6.28208L20.1051 6.36802C20.7539 6.60005 21.5445 6.2563 21.8711 5.60747C21.9656 5.4227 21.9785 5.33677 21.9785 4.96294C21.9785 4.59341 21.9656 4.50317 21.8754 4.31841C21.7336 4.03481 21.4457 3.75552 21.1492 3.61802C20.943 3.51919 20.8441 3.502 20.5391 3.502C20.234 3.502 20.1352 3.51919 19.9289 3.61802C19.6324 3.75552 19.3445 4.03481 19.207 4.31841C19.0652 4.6063 19.0352 5.16059 19.1426 5.44419L19.2199 5.63755L18.6441 6.21333L18.0684 6.78911H15.7652H13.4621L13.0453 6.59145C12.6715 6.41528 12.0656 6.23911 11.593 6.16606L11.4297 6.14028V5.77934V5.41411H13.7672H16.109L16.225 5.31098C16.2895 5.25942 16.6375 4.68364 16.9941 4.03481C17.5355 3.05513 17.6559 2.86177 17.7246 2.87036C17.7719 2.87895 17.9652 2.89614 18.1543 2.90903C18.6313 2.93911 18.9234 2.82739 19.2543 2.49653C19.5551 2.19575 19.6797 1.89497 19.6797 1.46099C19.6797 1.027 19.5551 0.726219 19.2543 0.425438C18.8375 0.0086422 18.2402 -0.115967 17.673 0.0902824C17.3336 0.219189 16.977 0.575829 16.848 0.915283C16.7406 1.21177 16.7277 1.69731 16.8266 1.95513C16.8609 2.04966 16.8996 2.15708 16.9125 2.19145C16.9254 2.22583 16.6547 2.75864 16.3152 3.37309L15.6965 4.49028L13.5652 4.50317L11.4297 4.51177V2.37622V0.240673L11.3137 0.120361L11.1977 4.76837e-05H10.0418H8.88594L8.76133 0.124657ZM10.5273 3.51919V6.14028L10.3254 6.17036C8.71406 6.39809 7.33906 7.39497 6.60859 8.87309C6.06719 9.9602 5.97695 11.3997 6.37656 12.5727C6.67734 13.4622 7.31758 14.3387 8.07383 14.9145C8.65391 15.3485 9.47891 15.7008 10.1965 15.8125L10.5273 15.8684V18.5067C10.5273 20.9 10.523 21.1493 10.4586 21.1235C10.4199 21.1106 10.2008 21.0977 9.96875 21.0977H9.54766L9.53047 20.4102C9.51328 19.5422 9.53477 19.5723 8.71836 19.336C7.86758 19.0911 7.33477 18.8633 6.55273 18.4165C6.01133 18.1071 5.98125 18.1157 5.38398 18.7L4.89414 19.1813L3.85859 18.1415L2.81875 17.1059L3.3 16.6161C3.90586 16.0016 3.90156 16.0188 3.49766 15.2926C3.05938 14.5106 2.83594 13.9391 2.56094 12.9336C2.52227 12.7918 2.44922 12.65 2.38477 12.5899C2.27305 12.4868 2.24727 12.4825 1.56406 12.4696L0.859375 12.4524V10.9958V9.53911H1.49961C1.84766 9.53911 2.19141 9.51762 2.26445 9.49614C2.42773 9.43598 2.50938 9.29419 2.6168 8.8645C2.81016 8.11684 3.08945 7.42934 3.52773 6.65591C3.89727 5.98989 3.90156 5.99419 3.3 5.38403L2.81875 4.89849L3.8457 3.86724L4.87266 2.84028L5.3582 3.31294C5.82227 3.75981 5.85234 3.7813 6.02852 3.7813C6.17031 3.7813 6.29922 3.73403 6.5957 3.55786C7.32188 3.14106 8.09531 2.8231 8.89023 2.61684C9.13086 2.55239 9.29414 2.48364 9.38438 2.402L9.51758 2.28599L9.53047 1.59419L9.54766 0.902391H10.0375H10.5273V3.51919ZM18.6098 1.06997C18.7602 1.22036 18.7773 1.25903 18.7773 1.46099C18.7773 1.66294 18.7602 1.70161 18.6098 1.852C18.4594 2.00239 18.4207 2.01958 18.2188 2.01958C18.0168 2.01958 17.9781 2.00239 17.8277 1.852C17.6773 1.70161 17.6602 1.66294 17.6602 1.46099C17.6602 1.25903 17.6773 1.22036 17.8277 1.06997C17.9781 0.919579 18.0168 0.902391 18.2188 0.902391C18.4207 0.902391 18.4594 0.919579 18.6098 1.06997ZM20.7754 4.44302C21.1965 4.61919 21.2008 5.27231 20.784 5.46997C20.5992 5.5602 20.4961 5.5602 20.3027 5.48286C19.8859 5.30669 19.8773 4.62778 20.2941 4.44731C20.4703 4.36997 20.5906 4.36997 20.7754 4.44302ZM18.6098 20.1481C18.7602 20.2985 18.7773 20.3372 18.7773 20.5391C18.7773 20.7411 18.7602 20.7797 18.6098 20.9301C18.4594 21.0805 18.4207 21.0977 18.2188 21.0977C18.0168 21.0977 17.9781 21.0805 17.8277 20.9301C17.6773 20.7797 17.6602 20.7411 17.6602 20.5391C17.6602 20.3372 17.6773 20.2985 17.8277 20.1481C17.9781 19.9977 18.0168 19.9805 18.2188 19.9805C18.4207 19.9805 18.4594 19.9977 18.6098 20.1481Z" fill="#232323"/>
<path d="M8.23709 4.81258C7.4035 5.17352 6.47537 5.86102 5.8953 6.54422C4.91561 7.70008 4.3742 8.98915 4.25389 10.4673C4.20662 11.0431 4.22381 11.1763 4.36561 11.3181C4.49451 11.4427 4.63201 11.4727 4.81248 11.4126C5.05311 11.3352 5.10037 11.2149 5.15194 10.5919C5.341 8.38758 6.51834 6.66454 8.51209 5.69344C8.7742 5.56883 9.01483 5.42704 9.04491 5.38407C9.07928 5.3411 9.10936 5.22508 9.10936 5.12196C9.10936 4.97157 9.08358 4.91141 8.98475 4.80829C8.82147 4.64501 8.62381 4.64501 8.23709 4.81258Z" fill="#232323"/>
<path d="M10.291 7.79891C9.74962 7.91923 9.35861 8.11259 8.89025 8.49071C8.38322 8.89462 7.94923 9.59501 7.79454 10.2524C7.70431 10.6434 7.70431 11.3653 7.79454 11.7477C8.07814 12.9466 8.98478 13.8747 10.1793 14.1841C10.5961 14.2958 11.3223 14.3044 11.7477 14.2056C12.4094 14.0509 13.1012 13.6169 13.5137 13.1099C13.982 12.5298 14.2141 11.9454 14.2527 11.2493L14.2785 10.8325L14.1453 10.7036C13.9649 10.5188 13.6899 10.5145 13.5223 10.6907C13.4234 10.7938 13.3977 10.8712 13.3633 11.1849C13.2902 11.8251 13.0625 12.2977 12.6242 12.7274C12.1988 13.1442 11.6231 13.372 11.0043 13.3763C10.3469 13.3763 9.79689 13.1485 9.32423 12.6759C8.85157 12.2032 8.62384 11.6532 8.62384 10.9958C8.62814 9.75399 9.52618 8.7829 10.8152 8.6368C11.1289 8.60243 11.2063 8.57665 11.3094 8.47782C11.4813 8.31024 11.4813 8.03524 11.3051 7.85907C11.1891 7.74305 11.1547 7.73446 10.8625 7.73876C10.6906 7.73876 10.4328 7.76884 10.291 7.79891Z" fill="#232323"/>
<path d="M20.0793 9.59931C19.7055 9.71962 19.3574 10.0247 19.1984 10.3813L19.1168 10.5704H18.4078H17.6945L17.5699 10.695C17.3207 10.9485 17.4453 11.3782 17.7934 11.447C17.8707 11.4599 18.1973 11.4727 18.5238 11.4727H19.1211L19.2242 11.6747C19.6754 12.5642 20.8742 12.7489 21.5875 12.0442C21.9742 11.6661 22.1117 10.9958 21.9098 10.463C21.7809 10.1149 21.4285 9.76259 21.0848 9.63369C20.8012 9.52626 20.3672 9.51337 20.0793 9.59931ZM20.7969 10.506C21.0805 10.652 21.1922 11.0216 21.0289 11.3009C20.8184 11.6575 20.2598 11.6575 20.0492 11.3009C19.959 11.1462 19.959 10.8325 20.0492 10.7036C20.2168 10.4673 20.5477 10.377 20.7969 10.506Z" fill="#232323"/>
<path d="M15.2324 10.5875C15.1637 10.6176 15.0778 10.6907 15.052 10.7465C14.8543 11.1289 15.125 11.52 15.5332 11.4383C15.8469 11.3782 15.9758 10.9184 15.7438 10.6821C15.6793 10.6219 15.6063 10.5703 15.5805 10.5703C15.5547 10.5703 15.4946 10.5617 15.4473 10.5489C15.4 10.536 15.3055 10.5532 15.2324 10.5875Z" fill="#232323"/>
<path d="M13.084 14.4547C12.7961 14.7426 12.968 15.2109 13.3633 15.2109C13.5867 15.2109 13.7328 15.1164 13.793 14.9273C13.8574 14.7426 13.7887 14.5148 13.6426 14.4203C13.4793 14.3129 13.2086 14.3301 13.084 14.4547Z" fill="#232323"/>
<path d="M14.8457 14.4547C14.7254 14.5793 14.6738 14.7383 14.7125 14.893C14.7297 14.9531 14.7898 15.052 14.8457 15.1078L14.9488 15.2109H16.5086H18.0683L18.6441 15.7867L19.2199 16.3625L19.1426 16.5559C19.0394 16.8309 19.0652 17.3937 19.1984 17.6645C19.3531 17.9824 19.5722 18.2016 19.8859 18.3563C20.1394 18.4809 20.2125 18.498 20.539 18.498C20.8441 18.498 20.9429 18.4809 21.1492 18.382C21.4457 18.2445 21.7336 17.9652 21.8754 17.6816C21.9656 17.4969 21.9785 17.4066 21.9785 17.0371C21.9785 16.6633 21.9656 16.5816 21.8711 16.3969C21.7207 16.1004 21.4414 15.8254 21.1492 15.6922C20.9429 15.5977 20.8484 15.5805 20.539 15.5805C20.3027 15.5805 20.1222 15.6063 20.0234 15.6535L19.873 15.718L19.1812 15.0348L18.4894 14.3516H16.7191H14.9488L14.8457 14.4547ZM20.784 16.5301C21.2308 16.7406 21.1922 17.4109 20.7195 17.5742C20.0707 17.7977 19.6668 16.8352 20.2855 16.5301C20.4703 16.4398 20.5949 16.4398 20.784 16.5301Z" fill="#232323"/>
</g>
<defs>
<clipPath id="clip0_0_118">
<rect width="22" height="22" fill="white"/>
</clipPath>
</defs>
</svg>
