<svg width="22" height="22" viewBox="0 0 22 22" fill="none" xmlns="http://www.w3.org/2000/svg">
<g clip-path="url(#clip0_0_132)">
<path d="M12.9809 0.691796C11.7434 0.820703 10.5746 1.25039 9.49609 1.96797C8.89023 2.36758 7.98359 3.25273 7.54961 3.86719C6.98242 4.6707 6.52266 5.74492 6.30781 6.77617C6.22188 7.18437 6.20898 7.36055 6.20898 8.25C6.21328 9.13516 6.22617 9.31562 6.30781 9.71094C6.97813 12.8047 9.26406 15.0734 12.3406 15.6922C12.7574 15.7781 12.9594 15.791 13.75 15.791C14.5449 15.791 14.7426 15.7781 15.168 15.6922C18.2273 15.0734 20.5305 12.7918 21.1836 9.73242C21.3168 9.11367 21.3512 7.80742 21.2523 7.1543C21.0633 5.9168 20.6121 4.80391 19.9117 3.81992C19.6109 3.39453 18.9578 2.70703 18.541 2.36328C16.9984 1.1 14.9531 0.485546 12.9809 0.691796ZM14.3859 1.42227C14.6137 1.44805 14.8672 1.48242 14.9402 1.49531L15.082 1.52539L14.8543 1.69727C14.734 1.7918 14.4332 2.02383 14.1926 2.20859L13.7543 2.54375L13.084 2.03242L12.418 1.52539L12.5684 1.49531C13.0926 1.38359 13.793 1.35781 14.3859 1.42227ZM12.4953 2.51367L13.402 3.20117V4.25391V5.30664L12.302 6.14453C11.6918 6.6043 11.1676 6.97812 11.1332 6.96953C10.8625 6.90508 9.12227 6.34219 9.08359 6.30352C9.05781 6.27344 8.86875 5.7707 8.6625 5.18203L8.29297 4.11641L8.59375 3.75977C9.14805 3.11094 9.86563 2.54805 10.6605 2.14414C11.1418 1.90351 11.4855 1.77031 11.5414 1.80039C11.5672 1.81328 11.9969 2.13555 12.4953 2.51367ZM16.8137 2.13125C17.5871 2.52227 18.3863 3.14531 18.9191 3.77266L19.207 4.11641L18.8375 5.18633C18.6313 5.7707 18.4422 6.27344 18.4164 6.29922C18.3777 6.34219 16.616 6.91367 16.3668 6.96953C16.3324 6.97383 15.8082 6.6043 15.198 6.14453L14.098 5.30664V4.25391V3.20117L15.0434 2.48789L15.9844 1.77031L16.2035 1.85195C16.3195 1.89922 16.5945 2.02383 16.8137 2.13125ZM8.05234 5.66328C8.18984 6.05859 8.31445 6.40234 8.32305 6.42812C8.33164 6.45391 8.03086 6.69023 7.65273 6.95234C7.21445 7.25313 6.96094 7.40352 6.96094 7.36055C6.96094 7.21016 7.14141 6.43672 7.25313 6.10156C7.38633 5.70625 7.73008 4.94141 7.77305 4.94141C7.78594 4.94141 7.91484 5.26367 8.05234 5.66328ZM19.9375 5.33672C20.0363 5.55586 20.1781 5.89961 20.2469 6.10156C20.3586 6.43672 20.5391 7.21016 20.5391 7.36484C20.5391 7.40781 20.2941 7.25742 19.8516 6.95234C19.3316 6.59141 19.1684 6.4582 19.1855 6.40664C19.2027 6.36797 19.323 6.02422 19.4563 5.6375C19.5895 5.25508 19.7141 4.94141 19.727 4.94141C19.7398 4.94141 19.8344 5.11758 19.9375 5.33672ZM14.7727 6.75039C15.3313 7.18008 15.791 7.55391 15.7867 7.57969C15.7824 7.60547 15.6105 8.18125 15.4 8.86016L15.0219 10.0977H13.75H12.4781L12.1 8.86016C11.8895 8.18125 11.7176 7.60547 11.7133 7.57969C11.709 7.54102 13.677 5.98555 13.7414 5.97695C13.75 5.97266 14.2141 6.325 14.7727 6.75039ZM9.92148 7.36484C10.4715 7.54102 10.9398 7.7 10.957 7.72148C11 7.76445 11.7734 10.2867 11.7734 10.3727C11.7734 10.4113 11.4813 10.8152 11.1246 11.2793L10.4801 12.1172H10.1063C9.9 12.1172 9.37578 12.1301 8.9375 12.143L8.14258 12.1687L7.9793 11.9109C7.39062 10.9785 6.99961 9.79258 6.93516 8.75273L6.90938 8.35742L7.86758 7.7C8.3918 7.34336 8.84297 7.04688 8.86875 7.04688C8.89453 7.04688 9.36719 7.19297 9.92148 7.36484ZM19.6539 7.71719L20.5906 8.35742L20.5648 8.75273C20.5047 9.78828 20.1051 10.9828 19.5207 11.9109L19.3574 12.1687L18.5625 12.143C18.1242 12.1301 17.6 12.1172 17.3938 12.1172H17.0199L16.3754 11.2793C16.0188 10.8152 15.7266 10.4113 15.7266 10.3727C15.7266 10.2867 16.5 7.76445 16.543 7.72148C16.5988 7.66133 18.5324 7.05117 18.6313 7.06406C18.6785 7.06836 19.1383 7.36484 19.6539 7.71719ZM15.7609 11.6918L16.4141 12.5469L16.0832 13.6641L15.748 14.7812L15.5375 14.8457C14.9789 15.0133 14.5922 15.0605 13.75 15.0605C12.9078 15.0605 12.5211 15.0133 11.9625 14.8457L11.752 14.7812L11.4211 13.6684L11.0859 12.5512L11.7434 11.6918L12.3965 10.8324H13.75H15.1035L15.7609 11.6918ZM10.6133 13.5395C10.725 13.909 10.8281 14.2656 10.8453 14.3301L10.8754 14.4461L10.4973 14.2484C10.016 13.9906 9.54336 13.6469 9.10078 13.2387L8.74844 12.9121L8.96328 12.8863C9.0793 12.8734 9.45312 12.8605 9.79258 12.8648L10.4156 12.8691L10.6133 13.5395ZM18.5152 12.882L18.7516 12.9121L18.3992 13.2387C17.9566 13.6469 17.484 13.9906 17.0027 14.2441C16.7965 14.3559 16.6289 14.4375 16.6289 14.4246C16.6289 14.4031 17.0457 12.9852 17.0801 12.8992C17.1016 12.8434 18.0727 12.8305 18.5152 12.882Z" fill="#232323"/>
<path d="M2.4793 10.2609C0.691797 12.0484 0.6875 12.0527 0.6875 12.2332C0.6875 12.375 0.708984 12.4309 0.799219 12.4996C1.06992 12.7102 1.01836 12.7488 2.97344 10.7981C4.19805 9.57345 4.77383 8.96759 4.79102 8.89024C4.82109 8.75704 4.72227 8.5336 4.61914 8.49063C4.58047 8.47774 4.48594 8.46485 4.41289 8.46485C4.28828 8.46485 4.09062 8.64962 2.4793 10.2609Z" fill="#232323"/>
<path d="M2.82734 14.257C1.25469 15.8297 1.16016 15.9328 1.16016 16.0746C1.16016 16.3109 1.29766 16.457 1.5168 16.457C1.69727 16.457 1.70156 16.4484 3.36016 14.7898C5.01875 13.1312 5.02734 13.127 5.02734 12.9465C5.02734 12.7273 4.88125 12.5898 4.64492 12.5898C4.50313 12.5898 4.4 12.6844 2.82734 14.257Z" fill="#232323"/>
<path d="M6.20898 15.2969C6.16172 15.3184 5.12187 16.3368 3.89726 17.5614C1.93789 19.525 1.67148 19.8086 1.6457 19.9461C1.62422 20.0836 1.6414 20.1223 1.75742 20.2426C1.87773 20.3586 1.9164 20.3758 2.0539 20.3543C2.1914 20.3286 2.475 20.0622 4.45586 18.0813C6.05859 16.4786 6.70742 15.804 6.7289 15.7137C6.79336 15.4043 6.50547 15.168 6.20898 15.2969Z" fill="#232323"/>
<path d="M7.21016 18.6398C5.55156 20.2984 5.54297 20.3027 5.54297 20.4832C5.54297 20.7023 5.68906 20.8398 5.92539 20.8398C6.06719 20.8398 6.17031 20.7453 7.74297 19.1727C9.31563 17.6 9.41016 17.4969 9.41016 17.3551C9.41016 17.1187 9.27266 16.9727 9.05352 16.9727C8.87305 16.9727 8.86875 16.9812 7.21016 18.6398Z" fill="#232323"/>
<path d="M11.0988 19.134C9.60352 20.6293 9.41016 20.8355 9.41016 20.9516C9.41016 21.0246 9.44883 21.1363 9.50039 21.2008C9.56914 21.291 9.625 21.3125 9.7668 21.3125C9.94727 21.3125 9.95156 21.3082 11.6359 19.6238C13.4836 17.7719 13.4449 17.8234 13.1957 17.5699C13.1055 17.484 13.0281 17.4453 12.925 17.4453C12.7961 17.4453 12.6371 17.5914 11.0988 19.134Z" fill="#232323"/>
</g>
<defs>
<clipPath id="clip0_0_132">
<rect width="22" height="22" fill="white"/>
</clipPath>
</defs>
</svg>
