<svg width="22" height="20" viewBox="0 0 22 20" fill="none" xmlns="http://www.w3.org/2000/svg">
<path d="M1.93359 1.6212V2.26573H2.57812H3.22265L3.21406 4.30675L3.20117 6.35206L2.68554 6.52394C2.40195 6.61847 1.97656 6.79034 1.73593 6.91066C1.33632 7.10401 0.545697 7.60245 0.309369 7.80441C0.189057 7.90753 0.163276 7.85597 0.683197 8.48761C1.00117 8.87862 1.05273 8.92159 1.11718 8.87433C2.42343 7.91612 3.49765 7.52081 4.91132 7.47355C5.67617 7.45206 6.16601 7.49933 6.78476 7.66691C9.25546 8.32862 11.0902 10.3653 11.4984 12.9005C11.5371 13.1368 11.5715 13.7814 11.5887 14.5419L11.6144 15.8009H12.9551H14.2914L14.3687 16.1189C14.4676 16.5442 14.8113 17.2317 15.1035 17.5884C15.6965 18.3103 16.4699 18.7829 17.3551 18.9591C17.8019 19.0493 18.743 19.0278 19.1426 18.9161C19.757 18.7442 20.4273 18.3532 20.8785 17.9021C21.3297 17.4509 21.7207 16.7806 21.8926 16.1661C22.0043 15.7665 22.0258 14.8255 21.9398 14.3786C21.8023 13.7083 21.4715 13.0638 21.0031 12.5567L20.7109 12.2431V10.9239C20.7109 9.45011 20.6937 9.31691 20.423 8.7798C20.2168 8.3673 19.7656 7.91612 19.3531 7.70987C18.8547 7.46066 18.6398 7.42198 17.6859 7.42198H16.8394L16.8523 5.73331C16.8652 4.08761 16.8695 4.04464 16.9598 3.89855C17.0629 3.73097 17.2605 3.59776 17.398 3.59776C17.484 3.59776 17.4883 3.58058 17.4883 2.93175V2.26573H17.3035C16.8996 2.26573 16.2894 2.5794 16.0144 2.92745C15.8039 3.18956 15.7266 3.32276 15.6363 3.58917C15.559 3.80831 15.5547 3.9673 15.5547 5.62589V7.42198L14.1496 7.41339L12.7445 7.4005L12.0055 4.9298C11.5973 3.57198 11.2535 2.41612 11.2363 2.36026C11.2148 2.26573 11.2148 2.26573 11.7305 2.26573H12.2461V1.6212V0.976671H7.08984H1.93359V1.6212ZM10.5531 4.75792C10.9613 6.11573 11.3051 7.27159 11.3223 7.32316L11.3437 7.42198H10.4199H9.49609L9.04921 7.16417C8.29296 6.73019 7.53671 6.4423 6.65585 6.26183C6.3207 6.18878 5.99843 6.1587 5.36249 6.14581L4.51171 6.12003V4.19503V2.26573L7.16288 2.27433L9.80976 2.28722L10.5531 4.75792ZM18.6055 8.84425C18.9492 9.00323 19.0996 9.15362 19.2586 9.47159L19.4004 9.75948L19.4133 10.6146L19.4305 11.4739L19.3101 11.4396C18.7301 11.2935 18.6484 11.2892 15.5504 11.2892H12.4695L12.3277 10.9325C12.0656 10.2794 11.666 9.6005 11.1848 8.99894L10.9527 8.70675L14.6609 8.71964L18.3691 8.73253L18.6055 8.84425ZM15.0434 12.8017C14.6996 13.2657 14.4805 13.7212 14.3687 14.2196L14.3 14.5118H13.5996H12.9035L12.8777 13.661C12.8648 13.197 12.8391 12.763 12.8219 12.6942L12.7961 12.5782H14.0035H15.2152L15.0434 12.8017ZM18.7559 12.6857C19.207 12.8017 19.5422 12.9993 19.916 13.3732C20.4488 13.9017 20.668 14.4259 20.668 15.1564C20.668 15.8868 20.4488 16.411 19.916 16.9396C19.3875 17.4724 18.8633 17.6915 18.1328 17.6915C17.4023 17.6915 16.8781 17.4724 16.3496 16.9396C15.8168 16.411 15.5976 15.8868 15.5976 15.1564C15.5976 14.4259 15.8168 13.9017 16.3496 13.3732C16.7148 13.0036 17.0543 12.8017 17.4883 12.69C17.8019 12.6083 18.4379 12.604 18.7559 12.6857Z" fill="#232323"/>
<path d="M17.7719 14.5934C17.5742 14.7266 17.4883 14.8898 17.4883 15.1562C17.4883 15.5645 17.7246 15.8008 18.1328 15.8008C18.541 15.8008 18.7773 15.5645 18.7773 15.1562C18.7773 14.748 18.541 14.5117 18.1328 14.5117C17.9738 14.5117 17.8578 14.5375 17.7719 14.5934Z" fill="#232323"/>
<path d="M4.21954 8.77544C3.28282 8.94732 2.26876 9.46724 1.55118 10.1461C0.837903 10.8208 0.23634 11.9551 0.0644653 12.9563C-0.0171753 13.4204 -0.0171753 14.3141 0.0644653 14.7782C0.23634 15.7793 0.837903 16.9137 1.55118 17.5883C2.28165 18.2801 3.28712 18.7915 4.24532 18.959C4.70939 19.0407 5.60314 19.0407 6.0672 18.959C7.0254 18.7915 8.03087 18.2801 8.76134 17.5883C9.47462 16.9137 10.0762 15.7793 10.2481 14.7782C10.3297 14.3141 10.3297 13.4204 10.2481 12.9563C10.0805 11.9981 9.56915 10.9926 8.87736 10.2622C8.20275 9.54888 7.06837 8.94732 6.0672 8.77544C5.62032 8.6981 4.64923 8.6981 4.21954 8.77544ZM6.18751 10.1676C7.46368 10.5372 8.49064 11.5684 8.86017 12.8575C8.94181 13.1497 8.959 13.3 8.959 13.8672C8.959 14.4344 8.94181 14.5848 8.86017 14.877C8.49064 16.1747 7.46368 17.2016 6.16603 17.5711C5.87384 17.6528 5.72345 17.67 5.15626 17.67C4.58907 17.67 4.43868 17.6528 4.1465 17.5711C2.85743 17.2016 1.82189 16.1704 1.46095 14.8985C1.32775 14.4344 1.29767 13.6137 1.3965 13.1325C1.70157 11.6243 2.85314 10.4469 4.36134 10.1118C4.79532 10.0129 5.75353 10.043 6.18751 10.1676Z" fill="#232323"/>
<path d="M4.52461 12.0195C3.7168 12.3074 3.22266 13.0121 3.22266 13.8672C3.22266 14.9801 4.04336 15.8008 5.15625 15.8008C6.26914 15.8008 7.08984 14.9801 7.08984 13.8672C7.08984 13.0035 6.58711 12.2988 5.7707 12.0152C5.44844 11.9078 4.84258 11.9078 4.52461 12.0195ZM5.47422 13.3473C5.85664 13.6008 5.85664 14.1336 5.47422 14.3871C5.21211 14.559 4.82109 14.4645 4.63633 14.1852C4.46445 13.923 4.55898 13.532 4.83828 13.3473C5.00156 13.2398 5.31094 13.2398 5.47422 13.3473Z" fill="#232323"/>
</svg>
