<svg width="22" height="22" viewBox="0 0 22 22" fill="none" xmlns="http://www.w3.org/2000/svg">
<g clip-path="url(#clip0_0_114)">
<path d="M16.8652 0.236328C15.7222 0.446875 14.5535 0.996874 13.9176 1.63281C13.4148 2.13125 13.4019 2.16562 13.1613 3.89726L12.9594 5.3668L11.5801 6.74609L10.2051 8.12109L8.98904 6.90508L7.77303 5.68906L7.84178 5.43555C7.97498 4.91562 7.91053 4.28828 7.6699 3.79414C7.44647 3.34727 7.24022 3.18398 5.01873 1.74453C3.02498 0.451172 2.91326 0.386719 2.7199 0.386719H2.51795L1.59842 1.29766C1.09568 1.80039 0.653106 2.26875 0.614435 2.3375C0.575763 2.41055 0.558575 2.51797 0.571466 2.59531C0.601544 2.78867 3.31287 6.93945 3.54061 7.14141C3.75545 7.33906 4.10779 7.53242 4.42147 7.62266C4.71795 7.70859 5.35818 7.71289 5.67186 7.62695L5.90819 7.5625L7.1242 8.77852L8.33592 9.99023L6.82342 11.5027L5.30662 13.0152L3.8199 13.2258C2.1699 13.4621 2.10975 13.4793 1.70154 13.8445C1.11287 14.3687 0.588653 15.3398 0.292169 16.457C0.120294 17.1016 0.0730283 18.1199 0.189044 18.6871C0.335138 19.4133 0.59295 19.8988 0.85506 19.959C1.11717 20.0148 1.24178 19.9074 1.58553 19.3316C1.97225 18.6828 2.54803 17.8105 2.69842 17.6473C2.76287 17.5828 2.91326 17.4797 3.04217 17.4152C3.31717 17.282 3.56639 17.2949 3.92733 17.4668C4.63201 17.802 5.07029 18.3434 5.07029 18.8934C5.07029 19.1211 5.07889 19.0996 4.3742 20.2941C3.90154 21.0848 3.81131 21.2652 3.81131 21.4113C3.81131 21.5531 3.83709 21.609 3.94881 21.7078L4.08201 21.8281H4.77381C5.20779 21.8281 5.49568 21.8109 5.55584 21.7766C5.68904 21.7078 6.80623 20.857 7.34764 20.4145C7.91912 19.9461 8.47342 19.3918 8.53787 19.2285C8.56795 19.1469 8.60233 18.5711 8.62381 17.716L8.65819 16.3281L10.1621 14.8242L11.666 13.3203L12.2246 13.8789L12.7832 14.4375L12.259 14.9617C11.6918 15.5332 11.623 15.6535 11.7433 15.8812C11.782 15.95 12.9765 17.166 14.4031 18.5883C16.3152 20.4961 17.0629 21.2094 17.2519 21.3254C18.1113 21.8324 19.2328 21.8797 20.118 21.4414C20.9644 21.0203 21.7121 20.0879 21.8926 19.2285C22.0558 18.4379 21.884 17.5441 21.45 16.9211C21.3769 16.818 20.1523 15.559 18.7258 14.1238L16.1347 11.5113L15.907 11.5156H15.675L15.1508 12.0312L14.6265 12.5426L14.0808 11.9969L13.5351 11.4512L14.9058 10.0805L16.2765 8.70977L17.6215 8.68828C19.0953 8.6668 19.1211 8.6625 19.439 8.40039C19.9246 8.00078 21.7121 5.75781 21.7637 5.48281C21.7808 5.40547 21.7851 5.06602 21.7765 4.73086L21.7637 4.11641L21.6219 3.9918C21.3726 3.76836 21.2996 3.79414 20.1609 4.47305C19.2371 5.02734 19.1211 5.0832 18.8976 5.10469C18.5023 5.13477 18.2531 5.02734 17.8922 4.66641C17.5226 4.29688 17.3078 3.89297 17.282 3.52773C17.2605 3.25273 17.325 3.06367 17.5097 2.84453C17.6472 2.68125 18.498 2.10117 19.25 1.6543C19.5207 1.49531 19.7785 1.32344 19.8172 1.27188C19.8644 1.21601 19.8945 1.10859 19.8945 0.996874C19.8945 0.696093 19.6625 0.528515 18.9621 0.317968C18.6398 0.219141 18.4851 0.201952 17.8965 0.189062C17.4152 0.180468 17.1058 0.193359 16.8652 0.236328ZM18.3476 1.11289C18.3476 1.13008 18.2273 1.22031 18.0812 1.31484C17.3078 1.7875 16.8738 2.15273 16.6375 2.52656C16.1347 3.31289 16.384 4.44297 17.2476 5.31094C17.8191 5.88672 18.5582 6.12734 19.2801 5.97266C19.4047 5.94258 19.7527 5.7707 20.1738 5.52148C21.1664 4.93711 21.1535 4.97578 19.8773 6.56992C19.6453 6.86211 19.323 7.24883 19.1597 7.43359L18.8676 7.76445L17.8234 7.79453C17.2476 7.81172 16.573 7.8418 16.3152 7.85898L15.8555 7.89336L14.3988 9.33711C13.5996 10.132 12.925 10.7852 12.9035 10.7852C12.882 10.7852 12.723 10.6391 12.5512 10.4672L12.2332 10.1449L12.968 9.38008C13.3719 8.95898 14.0121 8.30586 14.3902 7.92773L15.082 7.24023V7.04258C15.082 6.76328 14.9359 6.61719 14.6566 6.61719H14.459L13.0195 8.05664L11.5801 9.49609L11.2148 9.13086L10.8496 8.76562L12.3191 7.2918C13.4191 6.1875 13.7887 5.79219 13.8101 5.69336C13.823 5.62031 13.9219 4.93711 14.0293 4.16797C14.1367 3.39883 14.2312 2.72852 14.2441 2.68125C14.2742 2.53945 14.6351 2.16133 14.923 1.96797C15.4215 1.62852 16.4312 1.21172 16.9769 1.12148C17.2777 1.07422 18.3476 1.06133 18.3476 1.11289ZM5.22069 2.96055C5.95545 3.4418 6.59998 3.87578 6.65154 3.92305C6.7074 3.97461 6.80623 4.11211 6.86639 4.23242C6.96951 4.42148 6.9824 4.49883 6.9824 4.85547C6.9824 5.2207 6.96951 5.28945 6.85779 5.5C6.68162 5.83516 5.96404 6.54414 5.65897 6.68594C5.3367 6.83203 5.066 6.85781 4.73084 6.77187C4.21522 6.63867 4.22811 6.65156 2.84451 4.5332L1.58553 2.60391L2.19568 1.99375L2.80154 1.38359L3.34725 1.74023C3.64373 1.93359 4.49022 2.48359 5.22069 2.96055ZM10.6347 9.83984L13.9863 13.1914L13.6855 13.4922L13.3847 13.793L10.0246 10.4328L6.66014 7.06836L6.94803 6.78047C7.10701 6.61719 7.24881 6.48828 7.2617 6.48828C7.27459 6.48828 8.79139 7.99648 10.6347 9.83984ZM9.35428 11.0086L9.71092 11.3652L8.12108 12.9551C6.60428 14.4762 6.53123 14.5535 6.53123 14.7082C6.53123 14.8199 6.56561 14.9059 6.65584 15.0047C6.76326 15.125 6.81053 15.1465 6.97811 15.1465H7.17576L8.75701 13.5652L10.334 11.9883L10.6777 12.332L11.0215 12.6758L9.44451 14.257C8.57654 15.125 7.85037 15.8855 7.82459 15.9457C7.80311 16.0059 7.76443 16.6934 7.73436 17.4711L7.68279 18.8848L7.39061 19.1727C7.1242 19.4348 6.0285 20.3242 5.40545 20.7926C4.97576 21.1148 4.98006 21.0246 5.45272 20.2254C5.90819 19.4562 5.94686 19.3402 5.93826 18.8418C5.92537 18.0641 5.45272 17.325 4.66639 16.848C3.73397 16.2895 2.89178 16.3023 2.1785 16.8996C1.97654 17.0672 1.55115 17.6301 1.22459 18.1672C1.02264 18.5023 0.996857 18.468 0.99256 17.8707C0.988263 17.1746 1.11717 16.5988 1.46092 15.8039C1.67576 15.3055 1.86483 14.9961 2.12264 14.7082C2.48787 14.3043 2.40193 14.3344 4.16795 14.0766L5.76639 13.8488L7.36483 12.2504C8.24139 11.3738 8.96756 10.6562 8.98045 10.6562C8.98904 10.6562 9.16092 10.8152 9.35428 11.0086ZM18.3305 15.0047C20.6679 17.3551 20.741 17.4324 20.8871 17.7461C21.0289 18.0555 21.0332 18.0898 21.0332 18.584C21.0332 19.091 21.0289 19.1039 20.8699 19.4391C20.6551 19.8902 20.0965 20.4617 19.6754 20.6594C19.0781 20.943 18.4679 20.9344 17.8621 20.6336C17.5871 20.5004 17.4152 20.3457 16.2508 19.1898C15.5332 18.4766 14.459 17.398 13.866 16.7879L12.7875 15.6793L14.3344 14.1324C15.1808 13.2859 15.8855 12.5898 15.8984 12.5898C15.9113 12.5898 17.007 13.677 18.3305 15.0047Z" fill="#232323"/>
<path d="M15.0391 14.8156C14.9316 14.923 14.9102 14.9789 14.9102 15.1508V15.357L16.7707 17.2219C17.7891 18.2445 18.6785 19.1125 18.743 19.1469C19.1254 19.3488 19.5594 18.9492 19.366 18.5797C19.3273 18.5109 18.4594 17.6172 17.4324 16.5902C15.5934 14.7554 15.5633 14.7297 15.3699 14.7082C15.1937 14.6867 15.1594 14.6996 15.0391 14.8156Z" fill="#232323"/>
</g>
<defs>
<clipPath id="clip0_0_114">
<rect width="22" height="22" fill="white"/>
</clipPath>
</defs>
</svg>
