<svg width="22" height="22" viewBox="0 0 22 22" fill="none" xmlns="http://www.w3.org/2000/svg">
<g clip-path="url(#clip0_0_148)">
<path d="M0.111713 0.116014L-0.00430298 0.227734L0.00858765 3.26133L0.0214783 6.29492L0.158978 6.63867C0.399603 7.22734 0.880853 7.76016 1.42656 8.03945L1.58984 8.12109V14.5836V21.0418L1.72304 21.3039C1.95078 21.768 2.34179 22 2.8789 22C3.41601 22 3.80702 21.768 4.03476 21.3039L4.16796 21.0418V14.5836V8.12109L4.33124 8.03945C4.87695 7.76016 5.3582 7.22734 5.59882 6.63867L5.73632 6.29492L5.74921 3.26133L5.7621 0.227734L5.64609 0.116014C5.48281 -0.047266 5.17343 -0.047266 5.01015 0.111719L4.89843 0.227734V2.64688V5.07031H4.51171H4.12499V2.64688V0.227734L4.01327 0.111719C3.92304 0.0214844 3.85859 0 3.69531 0C3.53202 0 3.46757 0.0214844 3.37734 0.111719L3.26562 0.227734V2.64688V5.07031H2.8789H2.49218V2.64688V0.227734L2.38046 0.111719C2.29023 0.0214844 2.22578 0 2.06249 0C1.89921 0 1.83476 0.0214844 1.74452 0.111719L1.63281 0.227734V2.64688V5.07031H1.24609H0.859369V2.64688V0.227734L0.74765 0.111719C0.584369 -0.047266 0.274994 -0.047266 0.111713 0.116014ZM4.83827 6.0457C4.77812 6.29492 4.55038 6.69453 4.35273 6.89648C4.21523 7.03398 4.02617 7.16289 3.79413 7.27031C3.60077 7.36055 3.41171 7.47656 3.37304 7.53242C3.31718 7.61406 3.30859 8.35312 3.30859 14.1195C3.30859 17.6902 3.2957 20.6723 3.28281 20.7496C3.23984 20.9473 3.07226 21.0977 2.8832 21.0977C2.67695 21.0977 2.54804 21.0031 2.49218 20.8055C2.4664 20.698 2.44921 18.4809 2.44921 14.1324C2.44921 7.73867 2.44921 7.61406 2.36328 7.51094C2.32031 7.45078 2.1871 7.36914 2.07538 7.32617C1.79609 7.21875 1.57695 7.07695 1.37499 6.8707C1.20742 6.69453 0.975384 6.27773 0.919525 6.0457L0.893744 5.92969H2.8789H4.86406L4.83827 6.0457Z" fill="#232323"/>
<path d="M21.059 0.232031C19.5551 1.33633 18.5152 2.96055 18.0855 4.87695C17.9867 5.30234 17.9867 5.3582 17.9738 8.84297C17.9566 12.7574 17.948 12.6027 18.2316 13.1055C18.3047 13.2387 18.6012 13.5824 18.8934 13.8832L19.4219 14.4246V17.7332V21.0418L19.5551 21.3039C19.7828 21.768 20.1738 22 20.7109 22C21.248 22 21.6391 21.768 21.8668 21.3039L22 21.0418V10.6348V0.227734L21.8883 0.111719C21.798 0.0214844 21.7336 0 21.5746 0C21.4027 0 21.334 0.0343742 21.059 0.232031ZM21.1191 20.698C21.0848 20.9387 20.9215 21.0977 20.7152 21.0977C20.509 21.0977 20.3801 21.0031 20.3242 20.8055C20.2984 20.7023 20.2813 19.4777 20.2813 17.3207V13.9949L19.6797 13.3848C19.2199 12.9164 19.0523 12.7145 18.9621 12.5211L18.8418 12.2676V9.06641C18.8418 6.15742 18.8504 5.82227 18.9191 5.39688C19.1641 3.94883 19.8043 2.67695 20.7926 1.68008L21.1191 1.35352L21.132 10.9355C21.1363 16.2078 21.132 20.5992 21.1191 20.698Z" fill="#232323"/>
<path d="M10.3555 2.79302C9.35859 2.86607 8.28437 3.15396 7.43359 3.57935C7.08984 3.75123 6.96523 3.94459 7.04687 4.18951C7.10703 4.37857 7.27461 4.51177 7.45078 4.51177C7.52383 4.51177 7.7043 4.45592 7.85469 4.38287C8.6539 4.00474 9.55625 3.76842 10.4543 3.69967C12.5254 3.54068 14.5449 4.26685 16.0531 5.7149C16.2465 5.89967 16.4441 6.06295 16.4957 6.08013C16.7578 6.16177 17.0414 5.98131 17.0887 5.69771C17.123 5.47857 16.9898 5.29381 16.4441 4.82115C14.7211 3.33873 12.6027 2.62974 10.3555 2.79302Z" fill="#232323"/>
<path d="M9.94726 4.96716C8.70546 5.18201 7.58828 5.77068 6.68163 6.68162C5.75781 7.60115 5.18203 8.70974 4.96718 9.96443C4.87695 10.4972 4.87695 11.5027 4.96718 12.0355C5.18203 13.2859 5.7621 14.3988 6.68163 15.3183C7.60117 16.2379 8.71406 16.8179 9.96445 17.0328C10.4973 17.123 11.5027 17.123 12.0355 17.0328C13.9648 16.7062 15.675 15.4129 16.5172 13.6469C16.9254 12.7961 17.1016 11.9926 17.1016 11C17.1016 9.30271 16.5129 7.87185 15.3184 6.68162C14.3988 5.75779 13.2902 5.18201 12.0355 4.96716C11.5328 4.88123 10.4328 4.88123 9.94726 4.96716ZM11.5199 5.81794C12.65 5.89529 13.9519 6.53123 14.7727 7.41208C15.4129 8.09099 15.8168 8.83865 16.0746 9.79685C16.2035 10.2652 16.2336 11.3566 16.1391 11.8808C15.748 14.0078 14.1711 15.6363 12.0484 16.1133C11.5156 16.2336 10.4844 16.2336 9.95156 16.1133C7.88476 15.6492 6.39374 14.1539 5.87812 12.0312C5.84374 11.8765 5.82226 11.5156 5.82226 11C5.82226 10.4844 5.84374 10.1234 5.87812 9.96873C6.35078 8.02654 7.63554 6.60427 9.45312 6.02419C9.95585 5.86521 10.7164 5.75349 11.0859 5.78787C11.1461 5.79216 11.3394 5.80505 11.5199 5.81794Z" fill="#232323"/>
<path d="M10.7164 7.11132C10.5145 7.24882 10.4758 7.63553 10.652 7.79452C10.7551 7.88905 10.9613 7.94491 11.0988 7.91913C11.4211 7.85468 11.5543 7.39491 11.318 7.15858C11.2277 7.06835 11.1633 7.04686 11.0043 7.04686C10.8926 7.04686 10.7637 7.07694 10.7164 7.11132Z" fill="#232323"/>
<path d="M9.28555 7.41211C8.6668 7.7043 7.95781 8.34453 7.60977 8.92891C7.24883 9.53047 7.04688 10.2309 7.04688 10.8625C7.04688 11.1719 7.05547 11.2148 7.15859 11.318C7.24883 11.4082 7.31328 11.4297 7.47656 11.4297C7.80742 11.4297 7.94922 11.232 7.94922 10.7637C7.94922 10.4758 8.10391 9.95156 8.30156 9.56914C8.55508 9.0793 9.0793 8.55508 9.56914 8.30156C9.96875 8.09531 10.0547 8.00078 10.0547 7.76445C10.0547 7.55391 9.99883 7.45078 9.83984 7.36914C9.66797 7.27891 9.55625 7.2875 9.28555 7.41211Z" fill="#232323"/>
<path d="M16.7621 15.5461C15.6965 16.6676 15.2238 17.0543 14.3645 17.4969C12.0957 18.6699 9.47891 18.5926 7.25742 17.2906C6.85352 17.0543 6.67305 17.0414 6.48398 17.2262C6.38086 17.3293 6.35938 17.3894 6.35938 17.5527C6.35938 17.8062 6.44961 17.8965 7.0082 18.2059C7.84609 18.6656 8.86875 19.0094 9.81836 19.1426C10.3898 19.2242 11.4684 19.2371 12.0441 19.1641C13.3977 19.0008 14.7684 18.4551 15.877 17.6387C16.5516 17.1445 17.3852 16.298 17.5227 15.9758C17.643 15.6922 17.4238 15.3828 17.093 15.3828C16.9469 15.3828 16.8953 15.4086 16.7621 15.5461Z" fill="#232323"/>
<path d="M5.18203 16.182C4.97578 16.3925 5.04453 16.7878 5.31523 16.9253C5.66328 17.1058 6.07578 16.732 5.93398 16.3624C5.86094 16.1648 5.71914 16.0703 5.4957 16.0703C5.33672 16.0703 5.27227 16.0917 5.18203 16.182Z" fill="#232323"/>
</g>
<defs>
<clipPath id="clip0_0_148">
<rect width="22" height="22" fill="white"/>
</clipPath>
</defs>
</svg>
