<svg width="22" height="22" viewBox="0 0 22 22" fill="none" xmlns="http://www.w3.org/2000/svg">
<path d="M6.53125 2.81445C5.25938 3.0293 4.09922 3.63086 3.17969 4.55469C2.24727 5.48711 1.6457 6.65156 1.43945 7.92773C1.39219 8.22422 1.375 8.73555 1.375 10.1191C1.375 11.8422 1.3793 11.9281 1.46094 12.0656C1.5082 12.143 1.60703 12.2418 1.68438 12.2891C1.81758 12.3707 1.90352 12.375 3.32148 12.375H4.8125V16.2723C4.8125 20.0879 4.8168 20.1781 4.89844 20.3156C4.9457 20.393 5.04453 20.4918 5.12188 20.5391C5.25938 20.625 5.34961 20.625 11 20.625C16.6504 20.625 16.7406 20.625 16.8781 20.5391C16.9555 20.4918 17.0543 20.393 17.1016 20.3156C17.1832 20.1781 17.1875 20.0879 17.1875 16.2723V12.375H18.6828C20.0965 12.375 20.1824 12.3707 20.3156 12.2891C20.393 12.2418 20.4918 12.143 20.5391 12.0656C20.625 11.9281 20.6293 11.8723 20.6121 9.94727C20.5992 8.2543 20.5863 7.92344 20.5219 7.65273C20.234 6.42383 19.6754 5.40977 18.8203 4.55469C18.1328 3.86289 17.3207 3.35586 16.4313 3.05937C15.7223 2.82305 15.4773 2.78437 14.459 2.76289C13.5609 2.7457 13.5051 2.75 13.3719 2.83164C13.1699 2.96055 13.0711 3.15391 13.041 3.47617C12.9852 4.06484 12.8219 4.44297 12.4695 4.82109C11.6703 5.67617 10.3297 5.67617 9.53047 4.82109C9.17813 4.44297 9.01484 4.06484 8.95898 3.47617C8.92891 3.14961 8.82578 2.96055 8.62813 2.83594C8.49922 2.75859 8.41328 2.75 7.66992 2.7543C7.22305 2.75859 6.70742 2.78437 6.53125 2.81445ZM7.70859 4.49023C7.98789 5.3582 8.61953 6.10586 9.41875 6.50547C9.96875 6.78047 10.3727 6.875 11 6.875C11.6273 6.875 12.0312 6.78047 12.5813 6.50547C13.3805 6.10586 14.0121 5.3582 14.2914 4.49023L14.3859 4.18945L14.6652 4.17656C15.0219 4.15937 15.632 4.28398 16.1434 4.47734C17.5828 5.01875 18.6914 6.26914 19.0781 7.78164C19.1941 8.23711 19.25 8.95039 19.25 10.0633V11H18.2188H17.1875V9.84844C17.1875 8.77852 17.1832 8.69258 17.1016 8.55937C16.9727 8.35312 16.7793 8.25 16.5 8.25C16.2207 8.25 16.0273 8.35312 15.8984 8.55937C15.8125 8.69687 15.8125 8.78711 15.8125 13.9734V19.25H11H6.1875V13.9734C6.1875 8.78711 6.1875 8.69687 6.10156 8.55937C5.97266 8.35312 5.7793 8.25 5.5 8.25C5.2207 8.25 5.02734 8.35312 4.89844 8.55937C4.8168 8.69258 4.8125 8.77852 4.8125 9.84844V11H3.78125H2.75V10.0633C2.75 8.45195 2.84023 7.82461 3.17539 7.04688C3.5707 6.12734 4.24531 5.3582 5.10898 4.83828C5.76641 4.44297 6.69023 4.16367 7.29609 4.18086L7.61406 4.18945L7.70859 4.49023Z" fill="#232323"/>
</svg>
