<svg width="22" height="22" viewBox="0 0 22 22" fill="none" xmlns="http://www.w3.org/2000/svg">
<path d="M0.567187 0.111719C0.442578 0.171875 0.292188 0.283594 0.236328 0.360937C0.00429688 0.666016 0 0.704687 0 2.2C0 3.74687 0.00859375 3.78125 0.305078 4.07773C0.537109 4.31406 0.739062 4.38281 1.19023 4.38281H1.58984L1.59844 10.9871L1.61133 17.5957L1.70586 17.7676C1.81328 17.9695 2.02383 18.1801 2.23438 18.2875C2.35469 18.352 2.50508 18.3691 2.97773 18.382L3.56641 18.3992V19.7484C3.56641 20.9988 3.5707 21.1105 3.65234 21.3297C3.75117 21.5832 3.9918 21.8367 4.23672 21.9398C4.34844 21.9871 4.64492 22 5.55156 22C6.69453 22 6.72891 21.9957 6.94375 21.8969C7.18008 21.7895 7.38633 21.5703 7.46367 21.3469C7.49375 21.2695 7.65273 20.6078 7.82031 19.873C7.98789 19.1383 8.13398 18.5066 8.14688 18.4637C8.16836 18.3949 8.34023 18.3906 11 18.3906C13.6598 18.3906 13.8316 18.3949 13.8531 18.4637C13.866 18.5066 14.0121 19.1383 14.1797 19.873C14.3473 20.6078 14.5063 21.2695 14.5363 21.3469C14.6137 21.5703 14.8199 21.7895 15.0563 21.8969C15.2711 21.9957 15.3055 22 16.4484 22C17.3465 22 17.6516 21.9871 17.7633 21.9398C17.9609 21.8582 18.2102 21.6305 18.3176 21.4242C18.4078 21.2566 18.4121 21.1965 18.425 19.8215L18.4379 18.3992L19.0266 18.382C19.525 18.3691 19.641 18.352 19.7871 18.2746C19.9891 18.1672 20.1953 17.9566 20.307 17.7461C20.3844 17.6 20.3887 17.3379 20.4016 10.9871L20.4102 4.38281H20.8098C21.2695 4.38281 21.4715 4.30976 21.7121 4.06055C21.9957 3.76836 22.0043 3.7168 21.9914 2.12266L21.9785 0.70039L21.8496 0.489843C21.768 0.360937 21.6391 0.232031 21.5102 0.150391L21.2996 0.0214844L11.043 0.00859261L0.790625 0L0.567187 0.111719ZM20.7109 2.16992V3.05078H11H1.28906V2.16992V1.28906H11H20.7109V2.16992ZM19.0781 7.21875V10.0547H11H2.92188V7.21875V4.38281H11H19.0781V7.21875ZM19.0781 14.2227V17.0586H11H2.92188V14.2227V11.3867H11H19.0781V14.2227ZM6.78047 18.4422C6.76758 18.4723 6.64727 18.9965 6.50977 19.6023L6.25625 20.7109H5.57734H4.89844V19.5508V18.3906H5.84805C6.59141 18.3906 6.79336 18.4035 6.78047 18.4422ZM17.1016 19.5508V20.7109H16.4227H15.7438L15.4902 19.6023C15.3527 18.9965 15.2324 18.4723 15.2195 18.4422C15.2066 18.4035 15.4086 18.3906 16.152 18.3906H17.1016V19.5508Z" fill="#232323"/>
<path d="M9.89141 6.66016C9.69805 6.78047 9.58203 6.98672 9.58203 7.21875C9.58203 7.48516 9.70234 7.69141 9.92578 7.80742C10.102 7.90195 10.1578 7.90625 11 7.90625C11.8422 7.90625 11.898 7.90195 12.0742 7.80742C12.5211 7.57109 12.5383 6.92227 12.1086 6.66016C11.9797 6.58281 11.8895 6.57422 11 6.57422C10.1105 6.57422 10.0203 6.58281 9.89141 6.66016Z" fill="#232323"/>
<path d="M9.96875 13.6082C9.75391 13.6898 9.58203 13.9648 9.58203 14.2227C9.58203 14.4375 9.66367 14.6051 9.83984 14.7555L9.97734 14.8672H11H12.0227L12.1602 14.7555C12.4996 14.4676 12.5125 14.0164 12.1816 13.707L12.0656 13.5996L11.0516 13.591C10.493 13.5867 10.0031 13.5953 9.96875 13.6082Z" fill="#232323"/>
</svg>
