<svg width="22" height="22" viewBox="0 0 22 22" fill="none" xmlns="http://www.w3.org/2000/svg">
<path d="M9.69374 1.44374C6.5871 1.86484 3.85429 3.79843 2.42773 6.57851C1.9121 7.58398 1.60703 8.56367 1.43945 9.73242C1.35781 10.291 1.35781 11.6574 1.43515 12.2461C1.81757 15.0648 3.36875 17.5398 5.73632 19.091C6.6 19.6539 7.87617 20.191 8.87734 20.4101C10.175 20.6937 11.7477 20.7023 13.0195 20.4316C15.8512 19.8387 18.3133 17.9351 19.6152 15.3355C20.2812 14.0164 20.5777 12.8047 20.6121 11.275C20.6465 9.96445 20.5176 9.04921 20.148 7.92773C19.9418 7.31328 19.4434 6.27343 19.091 5.73632C17.5398 3.36874 15.0648 1.81757 12.2461 1.43515C11.6789 1.3621 10.2695 1.3621 9.69374 1.44374ZM12.1387 2.86171C15.1937 3.27421 17.8105 5.44414 18.7945 8.38749C19.0738 9.22109 19.1684 9.79257 19.1941 10.7637C19.2199 11.7434 19.1641 12.2719 18.9449 13.1012C18.2016 15.9199 15.9844 18.1586 13.1871 18.9234C12.4437 19.1254 11.7949 19.2113 10.9957 19.2113C9.4832 19.2113 8.11249 18.8375 6.81914 18.0726C4.675 16.8094 3.21835 14.6309 2.85742 12.1559C2.77148 11.5629 2.77148 10.4371 2.85742 9.84414C3.36445 6.38085 5.95976 3.63515 9.39296 2.94335C10.334 2.74999 11.1418 2.72851 12.1387 2.86171Z" fill="#232323"/>
<path d="M6.32499 9.71525C6.01561 9.83556 5.70624 10.1492 5.58593 10.4715C5.46132 10.8067 5.4785 11.3567 5.6246 11.6403C6.04999 12.4567 7.21015 12.6371 7.86327 11.9883C8.54647 11.3008 8.30155 10.0461 7.4121 9.71525C7.09413 9.59494 6.63866 9.59494 6.32499 9.71525Z" fill="#232323"/>
<path d="M10.45 9.71525C10.1406 9.83556 9.83124 10.1492 9.71093 10.4715C9.58632 10.8067 9.6035 11.3567 9.7496 11.6403C10.175 12.4567 11.3351 12.6371 11.9883 11.9883C12.2547 11.7176 12.375 11.4125 12.375 11C12.375 10.1836 11.8078 9.62072 10.9871 9.62931C10.7851 9.62931 10.6004 9.65939 10.45 9.71525Z" fill="#232323"/>
<path d="M14.575 9.71525C14.2656 9.83556 13.9562 10.1492 13.8359 10.4715C13.7113 10.8067 13.7285 11.3567 13.8746 11.6403C14.3 12.4567 15.4601 12.6371 16.1133 11.9883C16.3797 11.7176 16.5 11.4125 16.5 11C16.5 10.1836 15.9328 9.62072 15.1121 9.62931C14.9101 9.62931 14.7254 9.65939 14.575 9.71525Z" fill="#232323"/>
</svg>
