<svg width="22" height="22" viewBox="0 0 22 22" fill="none" xmlns="http://www.w3.org/2000/svg">
<g clip-path="url(#clip0_0_174)">
<path d="M4.43867 1.23745C4.52031 2.30737 5.18633 3.28706 6.17461 3.7855L6.52695 3.96596L6.26914 4.12065C4.51602 5.18628 3.14531 6.83628 2.44922 8.70971L2.30313 9.10503L2.10977 9.15229C1.39219 9.32846 0.640234 9.93862 0.309375 10.6132C0.210547 10.8152 0.0988281 11.0945 0.0644531 11.2363C-0.0214844 11.5714 -0.0214844 12.3234 0.0644531 12.6542C0.322266 13.6425 1.08711 14.4289 2.07109 14.7167L2.31172 14.7855L2.44922 15.1765C2.72852 15.9585 3.31719 16.9855 3.89727 17.7031C4.24102 18.1285 5.00156 18.8632 5.44844 19.2027C7.7043 20.9128 10.6004 21.4886 13.3461 20.771C15.4859 20.2167 17.4453 18.7945 18.6742 16.9082C19.0008 16.4054 19.3746 15.6664 19.5508 15.1765L19.6883 14.7855L19.9289 14.7167C20.9129 14.4289 21.6863 13.6339 21.9355 12.6542C22.0215 12.3234 22.0215 11.5671 21.9355 11.2363C21.7379 10.4499 21.1578 9.72378 20.4531 9.38003C20.2512 9.2812 20.002 9.17807 19.8902 9.15229L19.6969 9.10503L19.5508 8.70971C18.6785 6.35932 16.7707 4.41284 14.416 3.46753C13.3074 3.02065 12.4352 2.85307 10.9484 2.79721L10.102 2.76284L9.78398 2.60815C9.2125 2.32456 8.78711 1.73589 8.73555 1.1601L8.70977 0.902292H8.04375H7.37773L7.40352 1.25463C7.43359 1.67573 7.54961 2.05385 7.78164 2.48784L7.95352 2.80581L7.54102 2.78432C7.18008 2.76284 7.09414 2.74135 6.81484 2.60815C6.24766 2.32456 5.83516 1.75737 5.775 1.1687L5.74492 0.902292H5.07891H4.41289L4.43867 1.23745ZM11.6617 4.24956C13.127 4.76518 13.5609 6.59995 12.4695 7.68706C11.6574 8.50346 10.3469 8.50776 9.53477 7.69135C9.18672 7.34331 8.99336 6.9351 8.91602 6.3894L8.89023 6.18745H8.22422H7.55391L7.58398 6.47534C7.70859 7.75151 8.43906 8.80424 9.55195 9.32417C10.4285 9.73667 11.5715 9.73667 12.448 9.32417C14.0164 8.5937 14.7941 6.77612 14.2441 5.13471C14.1883 4.97143 14.1496 4.82534 14.1582 4.82104C14.1883 4.79096 14.9531 5.20776 15.3055 5.44409C16.9082 6.5226 18.0426 8.09956 18.5496 9.9601L18.6656 10.3898L19.0996 10.407C19.4477 10.4199 19.5723 10.4457 19.7656 10.5359C20.1008 10.6906 20.3285 10.9054 20.4961 11.2234C20.6207 11.4554 20.6465 11.5457 20.6594 11.8593C20.6809 12.3191 20.5777 12.6156 20.2941 12.9378C19.9332 13.3332 19.5637 13.4921 18.9922 13.4921H18.6656L18.5109 14.0378C17.802 16.5386 15.9156 18.5152 13.4621 19.3359C11.8293 19.8773 10.175 19.8773 8.55078 19.3402C6.08437 18.5195 4.19805 16.5429 3.48906 14.0464L3.33438 13.5007L2.92617 13.4835C2.38047 13.4621 2.07109 13.3246 1.74453 12.9722C1.42227 12.6242 1.31914 12.3406 1.34063 11.8593C1.35352 11.5457 1.3793 11.4554 1.50391 11.2234C1.67148 10.9054 1.89922 10.6906 2.23438 10.5359C2.42773 10.4457 2.55234 10.4199 2.90039 10.407L3.33438 10.3898L3.45469 9.95151C4.07773 7.69135 5.59883 5.87378 7.7 4.8769C9.01914 4.25385 10.8453 3.96167 11.6617 4.24956Z" fill="#232323"/>
<path d="M6.78047 10.1234C6.64297 10.1535 6.43242 10.2309 6.30781 10.2953C6.00273 10.45 5.58164 10.8625 5.41836 11.1676C5.28516 11.4168 5.15625 11.8637 5.15625 12.0828V12.2031H5.81367H6.47109L6.52266 12.0141C6.65156 11.5199 7.17578 11.2621 7.62695 11.4684C7.85039 11.5672 8.02227 11.7734 8.08242 12.0141L8.12969 12.2031H8.7957H9.46172L9.43164 11.9539C9.27266 10.6648 8.04375 9.81406 6.78047 10.1234Z" fill="#232323"/>
<path d="M14.1926 10.1148C13.3289 10.3254 12.6758 11.0645 12.5684 11.9539L12.5383 12.2031H13.2043H13.8703L13.9176 12.0141C13.9777 11.7734 14.1496 11.5672 14.373 11.4684C14.8242 11.2621 15.3484 11.5199 15.4773 12.0141L15.5289 12.2031H16.1863H16.8438V12.0828C16.8438 11.8809 16.7191 11.4383 16.6031 11.2062C16.4484 10.9012 16.0359 10.4801 15.7309 10.3168C15.2754 10.0762 14.6867 9.99883 14.1926 10.1148Z" fill="#232323"/>
<path d="M8.40898 15.1507L7.85898 15.473L7.93632 15.6019C8.33593 16.2851 9.22538 16.9296 10.0977 17.1703C10.5316 17.2906 11.5113 17.282 11.9582 17.1531C12.809 16.9081 13.6684 16.2765 14.0637 15.6019L14.141 15.473L13.6168 15.1636C13.3246 14.996 13.0582 14.8456 13.0238 14.8371C12.9809 14.8285 12.925 14.8671 12.882 14.9445C12.7574 15.1507 12.2805 15.5675 12.0227 15.6921C11.1375 16.1261 10.175 15.9843 9.46601 15.3226C9.31562 15.1851 9.16093 15.0132 9.12226 14.9488C9.07929 14.88 9.02773 14.8242 9.00195 14.8242C8.98046 14.8242 8.70976 14.9703 8.40898 15.1507Z" fill="#232323"/>
</g>
<defs>
<clipPath id="clip0_0_174">
<rect width="22" height="22" fill="white"/>
</clipPath>
</defs>
</svg>
