<svg width="22" height="22" viewBox="0 0 22 22" fill="none" xmlns="http://www.w3.org/2000/svg">
<g clip-path="url(#clip0_0_127)">
<path d="M0.317952 0.678905C0.244905 0.726171 0.14178 0.820704 0.0902177 0.885157C-0.0644698 1.08281 -0.0215011 1.50391 0.236311 2.26875C0.567171 3.26133 1.09998 4.23242 1.75311 5.04453C1.9035 5.2293 2.01951 5.38398 2.01092 5.38828C1.85194 5.47422 1.28475 5.95117 1.06991 6.17461C0.786311 6.4668 0.257796 7.15 0.257796 7.21875C0.257796 7.24023 0.40389 7.45078 0.580061 7.68281C1.16014 8.45625 1.89491 9.05352 2.59959 9.33281C2.90467 9.45312 3.0035 9.47031 3.48045 9.4875C3.77694 9.49609 4.11639 9.4875 4.2367 9.46602L4.46014 9.42305L4.48592 9.63359C4.50311 9.74961 4.83397 11.3094 5.22069 13.0969C5.60741 14.8844 5.93397 16.4742 5.95116 16.6289C6.05428 17.5828 6.66014 18.5367 7.54959 19.1555C7.74295 19.293 7.85037 19.4906 7.92772 19.843C8.00076 20.2039 8.05233 20.3027 8.2285 20.4102C8.46483 20.5562 10.8238 21.3984 11 21.3984C11.1762 21.3984 13.5308 20.5562 13.7758 20.4059C13.9305 20.3113 14.0293 20.1309 14.068 19.8516C14.1195 19.4992 14.2441 19.3187 14.6523 18.9965C15.443 18.3734 15.95 17.5098 16.0488 16.6289C16.066 16.4742 16.3969 14.8844 16.7836 13.0926C17.1703 11.3008 17.4969 9.74531 17.514 9.6293L17.5398 9.42305L17.7633 9.46602C17.8836 9.4875 18.223 9.49609 18.5195 9.4875C18.9965 9.47031 19.0953 9.45312 19.4004 9.33281C20.1051 9.05352 20.8398 8.45625 21.4199 7.68281C21.5961 7.45078 21.7422 7.24023 21.7422 7.21875C21.7422 7.15 21.2137 6.4668 20.9301 6.17461C20.7152 5.95117 20.1867 5.50859 19.9847 5.38398C19.9762 5.37969 20.0879 5.2293 20.234 5.05313C20.9 4.24101 21.4285 3.26992 21.768 2.25586C21.9097 1.83047 21.9742 1.55976 21.9914 1.32773C22.0086 1.01406 22.0043 0.996874 21.8754 0.85078C21.5918 0.524218 21.2265 0.515625 20.7883 0.824999C19.1769 1.97227 16.8566 2.89609 14.5062 3.33008C13.982 3.42461 13.9004 3.4332 13.8402 3.37734C13.7113 3.26133 13.2086 3.05078 12.9078 2.98633C12.4781 2.89609 9.52186 2.89609 9.09217 2.98633C8.79139 3.05078 8.28866 3.26133 8.15975 3.37734C8.09959 3.4332 8.01795 3.42461 7.49373 3.33008C5.15194 2.89609 2.81873 1.96797 1.20741 0.824999C0.975374 0.657421 0.893733 0.627344 0.69178 0.610155C0.507015 0.601562 0.421077 0.61875 0.317952 0.678905ZM3.48905 3.56211C4.49022 3.96601 5.68905 4.32695 6.75467 4.54609L7.1242 4.62344L6.69451 5.29805L6.26053 5.97266L6.07576 5.80078C5.50858 5.28086 4.61912 4.9457 3.79842 4.94141H3.45037L3.1367 4.58906C2.96053 4.39141 2.71561 4.09492 2.591 3.92305C2.35897 3.60508 1.93358 2.92617 1.93358 2.86601C1.93358 2.84883 2.16131 2.94766 2.44061 3.08945C2.71561 3.22695 3.18826 3.4375 3.48905 3.56211ZM19.8515 3.25273C19.5594 3.73398 19.2629 4.14219 18.8633 4.58906L18.5496 4.94141H18.2015C17.3937 4.9457 16.5172 5.27226 15.9543 5.775L15.7394 5.96836L15.3055 5.29805L14.8758 4.62344L15.2453 4.54609C16.7406 4.23672 18.3777 3.68672 19.5722 3.08516C19.8344 2.95195 20.0535 2.85312 20.0621 2.86172C20.0707 2.86601 19.9762 3.04648 19.8515 3.25273ZM12.8906 4.37852C12.998 4.43437 13.1398 4.52891 13.2043 4.59336C13.273 4.65351 13.793 5.43125 14.3601 6.31641C14.9316 7.20156 15.5504 8.16836 15.7437 8.46484C16.066 8.96758 16.1906 9.2125 16.1992 9.36719C16.1992 9.40156 15.9758 10.4801 15.6965 11.7605L15.1937 14.0895L14.9144 13.8273C14.2441 13.2 13.3719 12.7746 12.2719 12.5383C11.6875 12.4137 10.4027 12.4051 9.81834 12.5211C8.70545 12.7402 7.76014 13.1957 7.07694 13.8359L6.80623 14.0895L6.3035 11.7605C6.0242 10.4801 5.80077 9.40156 5.80077 9.36719C5.80936 9.2125 5.93397 8.96758 6.25623 8.46484C6.44959 8.16836 7.06834 7.20156 7.63983 6.31641C8.20702 5.43125 8.72694 4.65351 8.79569 4.59336C8.93319 4.46016 9.15662 4.33984 9.34569 4.29258C9.41873 4.27539 10.2008 4.2625 11.0859 4.2668C12.6887 4.27539 12.6972 4.27539 12.8906 4.37852ZM4.46444 6.39805C5.43123 6.7332 5.65037 7.33906 4.97147 7.79453C4.62772 8.01797 4.25819 8.12969 3.75975 8.15117C3.39022 8.16836 3.29569 8.15977 3.08084 8.07812C2.82733 7.98359 2.27733 7.59687 2.0453 7.35195L1.91639 7.21875L2.0453 7.08555C2.26873 6.84922 2.78006 6.48398 3.03787 6.37656C3.26131 6.28203 3.33436 6.27344 3.73826 6.28633C4.05623 6.29922 4.27108 6.33359 4.46444 6.39805ZM18.9277 6.36367C19.1726 6.45391 19.7269 6.84492 19.9547 7.08555L20.0836 7.21875L19.9547 7.35195C19.7226 7.59687 19.1726 7.98359 18.9191 8.07812C18.7043 8.15977 18.6097 8.16836 18.2402 8.15117C17.1316 8.09961 16.3754 7.48945 16.7191 6.93086C16.8695 6.69023 17.3379 6.42812 17.8105 6.3207C18.1414 6.24766 18.6699 6.26484 18.9277 6.36367ZM12.1258 13.8746C13.5094 14.1883 14.5363 15.052 14.7082 16.0402C14.7984 16.5773 14.6008 17.1402 14.1453 17.6215L13.9004 17.8836L13.4492 17.7332C12.5597 17.4281 12.2289 17.3852 11 17.3852C9.77108 17.3852 9.43592 17.4324 8.55936 17.7289C8.05233 17.9008 8.06952 17.9051 7.75155 17.5141C7.06405 16.6676 7.11991 15.7051 7.90623 14.9102C8.48201 14.3301 9.28123 13.9562 10.3082 13.793C10.6906 13.7328 11.7004 13.7758 12.1258 13.8746ZM11.9238 18.7387C12.1129 18.7602 12.418 18.8203 12.6027 18.8719C12.8777 18.9449 12.9336 18.9707 12.9121 19.0309C12.8949 19.0695 12.8648 19.1598 12.8433 19.2328C12.8047 19.3617 12.766 19.3789 11.9023 19.7012L11 20.032L10.0976 19.6969C9.23397 19.3789 9.1953 19.3574 9.15662 19.2328C9.13514 19.1598 9.10506 19.0695 9.09217 19.0309C9.06639 18.975 9.11366 18.9492 9.31131 18.8934C10.1191 18.6742 11.0172 18.6227 11.9238 18.7387Z" fill="#232323"/>
<path d="M8.95898 15.314C8.72266 15.4214 8.55078 15.6792 8.55078 15.9285C8.55078 15.9929 8.58945 16.1261 8.64102 16.2292C8.86875 16.6976 9.56914 16.7062 9.80547 16.2378C9.97734 15.907 9.85703 15.516 9.53906 15.3484C9.32422 15.241 9.14805 15.2324 8.95898 15.314Z" fill="#232323"/>
<path d="M12.4652 15.3484C12.1429 15.516 12.0226 15.907 12.1945 16.2378C12.2976 16.4441 12.4609 16.5515 12.7058 16.573C13.0109 16.6031 13.2386 16.4785 13.3633 16.2206C13.6511 15.6277 13.0453 15.0433 12.4652 15.3484Z" fill="#232323"/>
</g>
<defs>
<clipPath id="clip0_0_127">
<rect width="22" height="22" fill="white"/>
</clipPath>
</defs>
</svg>
