<svg width="20" height="20" viewBox="0 0 20 20" fill="none" xmlns="http://www.w3.org/2000/svg">
<g clip-path="url(#clip0_154_378)">
<path d="M0.917886 0.0507908C0.667886 0.132822 0.53898 0.214853 0.363199 0.394541C0.085855 0.671885 0.0194487 0.851572 0.0194487 1.3086C0.0194487 1.64063 0.0350737 1.73048 0.113199 1.89454C0.187417 2.05079 0.984293 2.8711 4.16398 6.0547L8.12492 10.0195L4.17961 13.9649C-0.238364 18.3828 0.0311675 18.0781 0.00772998 18.6797C-0.00789502 18.9805 0.00382373 19.043 0.0975737 19.2539C0.218667 19.5234 0.496011 19.8086 0.753824 19.9219C0.878824 19.9805 1.00773 20 1.28898 20C1.93742 20 1.57023 20.3203 6.04679 15.8477L9.99992 11.8945L13.9569 15.8477C18.4296 20.3203 18.0624 20 18.7109 20C18.9921 20 19.121 19.9805 19.246 19.9219C19.5038 19.8086 19.7812 19.5234 19.9023 19.2539C19.996 19.043 20.0077 18.9805 19.9921 18.6797C19.9687 18.0781 20.2382 18.3828 15.8202 13.9649L11.8749 10.0195L15.8359 6.0547C19.0155 2.8711 19.8124 2.05079 19.8866 1.89454C19.9648 1.73048 19.9804 1.64063 19.9804 1.3086C19.9804 0.984385 19.9648 0.886728 19.8944 0.742197C19.7734 0.496103 19.5116 0.242197 19.2577 0.121103C19.0741 0.0351658 18.9921 0.0195408 18.6913 0.0195408C18.4023 0.0195408 18.3046 0.039072 18.1444 0.113291C17.9882 0.18751 17.1718 0.980478 13.9765 4.17579L9.99992 8.14454L6.02726 4.17579C2.76554 0.921885 2.01554 0.191416 1.85539 0.117197C1.61711 0.00782204 1.15226 -0.023428 0.917886 0.0507908Z" fill="#777777"/>
</g>
<defs>
<clipPath id="clip0_154_378">
<rect width="20" height="20" fill="white"/>
</clipPath>
</defs>
</svg>
