<svg width="20" height="20" viewBox="0 0 20 20" fill="none" xmlns="http://www.w3.org/2000/svg">
<path d="M3.40625 0.703142C3.33594 0.746111 3.24609 0.835955 3.20312 0.906267C3.125 1.03517 3.125 1.12502 3.125 10.0039V18.9727L3.21484 19.1016C3.26172 19.1758 3.35938 19.2656 3.42578 19.3086C3.55469 19.3828 3.82812 19.4063 3.98828 19.3555C4.03516 19.3399 5.39062 18.2735 7 16.9844C8.60938 15.6992 9.94922 14.6367 9.97656 14.625C10.0039 14.6133 11.3477 15.6602 12.9609 16.9492C14.5742 18.2383 15.9297 19.3125 15.9727 19.332C16.0156 19.3555 16.1445 19.375 16.2578 19.375C16.5039 19.375 16.6836 19.2813 16.7969 19.0938C16.875 18.9649 16.875 18.875 16.875 10C16.875 1.12502 16.875 1.03517 16.7969 0.906267C16.7539 0.835955 16.6641 0.746111 16.5938 0.703142C16.4648 0.625017 16.3828 0.625017 10 0.625017C3.61719 0.625017 3.53516 0.625017 3.40625 0.703142ZM15.625 9.62892C15.625 13.8945 15.6172 17.3828 15.6055 17.3828C15.5938 17.3828 14.4414 16.4649 13.0391 15.3438C11.6406 14.2266 10.4336 13.2656 10.3594 13.2149C10.2109 13.1172 9.86719 13.0899 9.72266 13.168C9.67969 13.1875 8.46875 14.1485 7.03125 15.2969C5.59375 16.4453 4.40625 17.3828 4.39453 17.3828C4.38281 17.3828 4.375 13.8945 4.375 9.62892V1.87502H10H15.625V9.62892Z" fill="#232323"/>
</svg>
