<svg width="12" height="16" viewBox="0 0 12 16" fill="none" xmlns="http://www.w3.org/2000/svg">
<path d="M5.14693 0.0500135C2.69068 0.431263 0.793806 2.34376 0.421931 4.80626C0.359431 5.20626 0.362556 6.04064 0.421931 6.46564C0.556306 7.37501 0.859431 8.28439 1.40631 9.39064C2.02193 10.6406 2.65631 11.6406 4.34381 14.0156C4.73443 14.5656 5.18756 15.2125 5.35318 15.4531C5.52193 15.7 5.69381 15.9156 5.74693 15.9469C5.86568 16.0188 6.13443 16.0188 6.25318 15.9469C6.30631 15.9156 6.47818 15.7 6.64693 15.4531C6.81256 15.2125 7.26568 14.5656 7.65631 14.0156C9.34381 11.6406 9.97818 10.6406 10.5938 9.39064C11.1407 8.28126 11.4407 7.38751 11.5751 6.46564C11.6376 6.03751 11.6407 5.20939 11.5782 4.80001C11.2063 2.32501 9.29693 0.418763 6.81881 0.0468884C6.44068 -0.0124874 5.52193 -0.00936127 5.14693 0.0500135ZM6.71881 1.01564C8.60631 1.29689 10.1532 2.77189 10.5782 4.68751C10.6094 4.83439 10.6376 5.13439 10.6469 5.48439C10.6594 5.96564 10.6532 6.10314 10.5969 6.43751C10.4251 7.45314 9.97506 8.58439 9.21256 9.90626C8.67193 10.8469 8.03756 11.7969 6.65943 13.7344C6.32818 14.1969 6.04381 14.6 6.02818 14.625C6.00318 14.6656 5.99693 14.6656 5.97193 14.625C5.95631 14.6 5.67193 14.1969 5.34068 13.7344C3.96256 11.7969 3.32818 10.8469 2.78756 9.90626C2.02506 8.58439 1.57506 7.45314 1.40318 6.43751C1.34693 6.10314 1.34068 5.96564 1.35318 5.48439C1.36256 5.13439 1.39068 4.83439 1.42193 4.68751C1.73443 3.27814 2.65943 2.08439 3.92193 1.45314C4.81256 1.00939 5.72506 0.868763 6.71881 1.01564Z" fill="#777777"/>
<path d="M5.10781 2.08125C4.11094 2.3375 3.33281 3.12187 3.07969 4.11875C2.97344 4.54062 2.97344 5.09063 3.07969 5.5125C3.33594 6.51562 4.11719 7.29688 5.12031 7.55313C5.54219 7.65938 6.09219 7.65938 6.51406 7.55313C7.51719 7.29688 8.29844 6.51562 8.55469 5.5125C8.66094 5.09063 8.66094 4.54062 8.55469 4.11875C8.29844 3.1125 7.52031 2.33437 6.51406 2.07812C6.09531 1.97187 5.52344 1.975 5.10781 2.08125ZM6.36406 3.05C6.95781 3.23125 7.45156 3.75 7.61406 4.3625C7.67344 4.6 7.67344 5.03125 7.61406 5.26875C7.49844 5.70625 7.19531 6.12187 6.80781 6.37812C6.35781 6.67188 5.75469 6.75 5.24844 6.575C4.92031 6.4625 4.68281 6.30313 4.44844 6.04688C4.12344 5.69375 3.97344 5.3 3.97344 4.79688C3.97344 3.74062 4.89219 2.89062 5.95781 2.96562C6.04531 2.97187 6.22656 3.00938 6.36406 3.05Z" fill="#777777"/>
</svg>
