<svg width="19" height="19" viewBox="0 0 19 19" fill="none" xmlns="http://www.w3.org/2000/svg">
<path d="M8.9248 1.58457C6.97656 1.74414 5.25098 2.53828 3.89648 3.89649C2.52715 5.26211 1.74414 6.97656 1.58828 8.93223C1.3916 11.4186 2.46035 13.9494 4.37891 15.5563C7.36621 18.0574 11.6338 18.0574 14.6211 15.5563C16.5396 13.9494 17.6084 11.4186 17.4117 8.93223C17.1854 6.07109 15.5488 3.64414 12.9883 2.37871C11.7562 1.77012 10.2459 1.47324 8.9248 1.58457ZM10.3424 3.24707C12.1533 3.50313 13.7305 4.49395 14.751 6.01172C15.0219 6.41621 15.3633 7.12129 15.5043 7.57031C16.0016 9.14375 15.8902 10.7617 15.1777 12.2275C14.1127 14.4281 11.9232 15.8086 9.5 15.8086C7.09531 15.8086 4.89844 14.4318 3.83711 12.2646C2.72383 9.98613 3.06523 7.34766 4.72773 5.38457C5.67773 4.26016 7.125 3.46602 8.62422 3.24707C9.08066 3.18027 9.88223 3.18027 10.3424 3.24707Z" fill="#232323"/>
<path d="M9.20312 5.57012C9.03613 5.63691 8.86914 5.79277 8.78379 5.94863L8.70215 6.10449V8.3125V10.5205L8.79492 10.6875C8.84687 10.7766 8.96191 10.9027 9.04727 10.9658C9.1957 11.066 9.23652 11.0771 9.5 11.0771C9.76348 11.0771 9.8043 11.066 9.95273 10.9658C10.0381 10.9027 10.1531 10.7766 10.2051 10.6875L10.2979 10.5205V8.3125V6.10449L10.2051 5.9375C10.1531 5.84844 10.0418 5.72227 9.95273 5.66289C9.81914 5.57012 9.75234 5.54785 9.54453 5.54043C9.40723 5.53301 9.25508 5.54785 9.20312 5.57012Z" fill="#232323"/>
<path d="M9.14745 11.9381C8.50546 12.2758 8.55741 13.2035 9.23651 13.4299C9.72635 13.5932 10.2199 13.2889 10.3016 12.7694C10.3498 12.4576 10.1605 12.0977 9.86737 11.9492C9.68925 11.8565 9.31073 11.8528 9.14745 11.9381Z" fill="#232323"/>
</svg>
