<svg width="17" height="17" viewBox="0 0 17 17" fill="none" xmlns="http://www.w3.org/2000/svg">
<path d="M2.89531 0.597708C2.83555 0.634232 2.75918 0.710599 2.72266 0.770365C2.65625 0.879934 2.65625 0.956302 2.65625 8.50337V16.1268L2.73262 16.2364C2.77246 16.2995 2.85547 16.3758 2.91191 16.4124C3.02148 16.4754 3.25391 16.4954 3.39004 16.4522C3.42988 16.4389 4.58203 15.5325 5.95 14.4368C7.31797 13.3444 8.45684 12.4413 8.48008 12.4313C8.50332 12.4213 9.64551 13.3112 11.0168 14.4069C12.3881 15.5026 13.5402 16.4157 13.5768 16.4323C13.6133 16.4522 13.7229 16.4688 13.8191 16.4688C14.0283 16.4688 14.1811 16.3891 14.2773 16.2297C14.3438 16.1202 14.3438 16.0438 14.3438 8.50005C14.3438 0.956302 14.3438 0.879934 14.2773 0.770365C14.2408 0.710599 14.1645 0.634232 14.1047 0.597708C13.9951 0.531301 13.9254 0.531301 8.5 0.531301C3.07461 0.531301 3.00488 0.531301 2.89531 0.597708ZM13.2812 8.18462C13.2812 11.8104 13.2746 14.7754 13.2646 14.7754C13.2547 14.7754 12.2752 13.9952 11.0832 13.0422C9.89453 12.0926 8.86856 11.2758 8.80547 11.2327C8.6793 11.1497 8.38711 11.1264 8.26426 11.1928C8.22773 11.2094 7.19844 12.0262 5.97656 13.0024C4.75469 13.9786 3.74531 14.7754 3.73535 14.7754C3.72539 14.7754 3.71875 11.8104 3.71875 8.18462V1.5938H8.5H13.2812V8.18462Z" fill="#151515"/>
</svg>
