<svg width="13" height="16" viewBox="0 0 13 16" fill="none" xmlns="http://www.w3.org/2000/svg">
<path d="M0.739063 0.066391C0.679297 0.102914 0.60293 0.179282 0.566406 0.239048C0.5 0.348618 0.5 0.424985 0.5 7.97205V15.5955L0.576367 15.7051C0.616211 15.7681 0.699219 15.8445 0.755664 15.881C0.865234 15.9441 1.09766 15.964 1.23379 15.9209C1.27363 15.9076 2.42578 15.0012 3.79375 13.9055C5.16172 12.8131 6.30059 11.9099 6.32383 11.9C6.34707 11.89 7.48926 12.7799 8.86055 13.8756C10.2318 14.9713 11.384 15.8844 11.4205 15.901C11.457 15.9209 11.5666 15.9375 11.6629 15.9375C11.8721 15.9375 12.0248 15.8578 12.1211 15.6984C12.1875 15.5889 12.1875 15.5125 12.1875 7.96873C12.1875 0.424985 12.1875 0.348618 12.1211 0.239048C12.0846 0.179282 12.0082 0.102914 11.9484 0.066391C11.8389 -1.52588e-05 11.7691 -1.52588e-05 6.34375 -1.52588e-05C0.918359 -1.52588e-05 0.848633 -1.52588e-05 0.739063 0.066391ZM4.66858 7.52487C4.66858 11.1507 11.1184 14.2441 11.1084 14.2441C11.0984 14.2441 10.1189 13.4639 8.92695 12.5109C7.73828 11.5613 6.7123 10.7445 6.64922 10.7014C6.52305 10.6183 6.23086 10.5951 6.10801 10.6615C6.07148 10.6781 5.04219 11.4949 3.82031 12.4711C2.59844 13.4473 1.58906 14.2441 1.5791 14.2441C1.56914 14.2441 7.99293 11.1507 7.99293 7.52487L1.5625 1.06248L6.32383 10.9687L11.125 1.06248L4.66858 7.52487Z" fill="#232323"/>
</svg>
