<svg width="17" height="17" viewBox="0 0 17 17" fill="none" xmlns="http://www.w3.org/2000/svg">
<path d="M11.5613 0.0697994C11.5016 0.109643 11.4219 0.199291 11.3887 0.269018C11.3256 0.38855 11.3223 0.471558 11.3223 1.61042V2.82234H11.04C10.884 2.82234 10.6117 2.83894 10.4324 2.85886C7.83594 3.14109 5.64785 4.81121 4.70156 7.23835C4.35293 8.13484 4.25 8.77566 4.25 10.0639C4.25 10.9604 4.25332 10.9837 4.32637 11.0899C4.4293 11.246 4.58535 11.329 4.77793 11.329C5.06348 11.329 5.18633 11.2227 5.42871 10.7712C5.81719 10.0407 6.5543 9.24714 7.29473 8.76238C8.3041 8.10496 9.39648 7.80281 10.7811 7.80281H11.3223V9.02136C11.3223 10.2233 11.3256 10.2466 11.3986 10.3727C11.4385 10.4425 11.5248 10.5288 11.5879 10.562C11.7406 10.645 12.0029 10.645 12.1391 10.562C12.2553 10.4923 16.8904 5.68777 16.9568 5.57156C17.0199 5.45203 17.01 5.14656 16.9369 5.03035C16.834 4.86765 12.2088 0.086401 12.1092 0.039917C11.9631 -0.0231695 11.6875 -0.0098877 11.5613 0.0697994Z" fill="#151515"/>
<path d="M1.63691 2.8721C1.04921 3.00159 0.484761 3.44983 0.215816 4.001C-0.0132858 4.46917 -4.52655e-06 4.07405 -4.52655e-06 9.92112C-4.52655e-06 15.8412 -0.0199264 15.383 0.242378 15.8877C0.428316 16.2463 0.753707 16.5717 1.11562 16.761C1.61367 17.0166 1.03261 17 8.5 17C15.9674 17 15.3863 17.0166 15.8844 16.761C16.2463 16.5717 16.5717 16.2463 16.7576 15.8877C17.0133 15.3963 17 15.5856 17 12.1059C17 9.30686 16.9934 8.98479 16.9469 8.8885C16.8107 8.62288 16.6049 8.50002 16.2928 8.50002C16.0105 8.50002 15.8246 8.59631 15.6885 8.81545L15.5889 8.97483L15.5723 12.0162L15.5557 15.0576L15.4627 15.2137C15.4029 15.3166 15.3166 15.403 15.2137 15.4627L15.0576 15.5557H8.5H1.94238L1.78632 15.4627C1.68339 15.403 1.59707 15.3166 1.5373 15.2137L1.44433 15.0576L1.43437 9.9842C1.43105 6.46799 1.43769 4.8676 1.46093 4.77463C1.5041 4.61858 1.68339 4.41272 1.85273 4.32971C1.9623 4.27327 2.09511 4.26663 3.2373 4.25002C4.63183 4.2301 4.60195 4.23674 4.80449 4.00764C5.07675 3.69553 5.00703 3.18753 4.65507 2.9385L4.50898 2.83889L3.17753 2.83225C2.15488 2.82893 1.79628 2.83557 1.63691 2.8721Z" fill="#151515"/>
</svg>
