<svg width="167" height="52" viewBox="0 0 167 52" fill="none" xmlns="http://www.w3.org/2000/svg">
<g clip-path="url(#clip0_0_101)">
<path d="M0.836322 13.8954C0.385357 10.1951 3.20636 6.89802 6.95901 6.73926L156.856 0.397416C161.38 0.206044 164.687 4.58142 163.235 8.83669L150.311 46.7069C149.408 49.3531 146.879 51.1113 144.064 51.0487L10.57 48.0808C7.36613 48.0097 4.7019 45.613 4.31714 42.4559L0.836322 13.8954Z" fill="#2E60FF"/>
<path d="M15.3341 30.0254V23.3314C15.3341 22.1991 15.4811 21.2209 15.7746 20.3966C16.0684 19.564 16.4878 18.9063 17.0333 18.4233C17.587 17.9321 18.2205 17.5741 18.9336 17.3493C19.6552 17.1245 20.4734 17.0121 21.3879 17.0121C22.3193 17.0121 23.1372 17.1245 23.842 17.3493C24.5553 17.5658 25.1803 17.9155 25.7173 18.3984C26.2627 18.8812 26.6739 19.539 26.9507 20.3716C27.236 21.1958 27.3785 22.1825 27.3785 23.3314V30.0254C27.3785 31.1744 27.236 32.1609 26.9507 32.9853C26.6739 33.8012 26.2627 34.4422 25.7173 34.9085C25.1719 35.3748 24.5469 35.7119 23.842 35.9201C23.1372 36.1366 22.3193 36.2448 21.3879 36.2448C17.3521 36.2448 15.3341 34.1716 15.3341 30.0254ZM18.9463 30.4625C18.9463 32.444 19.7602 33.4348 21.3879 33.4348C22.1515 33.4348 22.7387 33.1809 23.1499 32.673C23.561 32.1651 23.7665 31.4283 23.7665 30.4625V22.9692C23.7665 21.9785 23.5567 21.2084 23.1372 20.6588C22.7261 20.101 22.143 19.8221 21.3879 19.8221C19.7602 19.8221 18.9463 20.8545 18.9463 22.9193V30.4625ZM29.8076 35.8077V17.3368H36.4906C37.4722 17.3368 38.3364 17.5825 39.0831 18.0737C39.8382 18.5565 40.4088 19.2059 40.7947 20.0218C41.1891 20.8296 41.3863 21.7328 41.3863 22.732C41.3863 23.7478 41.1849 24.6761 40.7822 25.5169C40.3878 26.3579 39.8089 27.0322 39.0454 27.5402C38.2902 28.0397 37.4219 28.2895 36.4402 28.2895H33.3441V35.8077H29.8076ZM33.3441 25.5544H35.1187C35.9997 25.5544 36.6625 25.3172 37.1073 24.8426C37.5519 24.368 37.7742 23.6852 37.7742 22.7944C37.7742 21.9119 37.5519 21.2375 37.1073 20.7713C36.6625 20.305 35.9997 20.0719 35.1187 20.0719H33.3441V25.5544ZM43.0098 20.1593V17.3368H55.3059V20.1593H50.9261V35.8077H47.3896V20.1593H43.0098ZM56.7155 30.1752V29.4634H60.0884V30.1752C60.0884 32.3483 60.9484 33.4348 62.6685 33.4348C63.3146 33.4348 63.8221 33.2391 64.191 32.8478C64.5689 32.4566 64.7576 31.9612 64.7576 31.3616C64.7576 30.7872 64.6067 30.2918 64.3049 29.8755C64.0024 29.4592 63.5075 29.0304 62.8194 28.5892L59.673 26.5536C57.8187 25.3546 56.8916 23.7685 56.8916 21.7954C56.8916 20.2967 57.3951 19.1269 58.402 18.2859C59.4089 17.4368 60.7345 17.0121 62.3789 17.0121C64.1661 17.0121 65.5338 17.4867 66.4821 18.4358C67.4297 19.3767 67.9042 20.767 67.9042 22.607V23.1691H64.5184V22.9692C64.5184 20.8711 63.7802 19.8221 62.3035 19.8221C61.7749 19.8221 61.3301 19.9594 60.9694 20.2343C60.6086 20.509 60.4282 20.892 60.4282 21.3832C60.4282 21.8993 60.5247 22.3115 60.7177 22.6196C60.9106 22.9276 61.2085 23.2149 61.6112 23.4813L65.2231 25.8542C65.7768 26.2205 66.2219 26.5493 66.5575 26.8408C66.9016 27.1321 67.2245 27.4819 67.5263 27.8898C67.8287 28.2978 68.0468 28.7598 68.181 29.2761C68.3236 29.7839 68.3946 30.3751 68.3946 31.0495C68.3946 32.6896 67.8997 33.9677 66.9099 34.8834C65.9194 35.791 64.5056 36.2448 62.6685 36.2448C60.7302 36.2448 59.2535 35.7161 58.2384 34.6588C57.2231 33.593 56.7155 32.0985 56.7155 30.1752ZM70.5348 35.8077V17.3368H77.0665C77.8549 17.3368 78.5512 17.4617 79.1555 17.7115C79.7597 17.9529 80.238 18.2902 80.5903 18.7231C80.9427 19.1478 81.2067 19.6223 81.3832 20.1468C81.5597 20.6714 81.6473 21.2375 81.6473 21.8452C81.6473 22.7778 81.4126 23.6478 80.9426 24.4554C80.481 25.2546 79.8812 25.7292 79.1427 25.8791C80.0743 26.2538 80.7662 26.795 81.2195 27.5027C81.6812 28.2103 81.912 29.1554 81.912 30.3377C81.912 31.9944 81.5469 33.3224 80.8167 34.3215C80.0954 35.3122 79.0423 35.8077 77.6579 35.8077H70.5348ZM74.0708 33.1726H76.3363C77.0076 33.1726 77.5026 32.9519 77.8216 32.5107C78.1401 32.061 78.2999 31.3284 78.2999 30.3126C78.2999 29.3968 78.1317 28.6932 77.7961 28.202C77.4693 27.7108 76.9821 27.4652 76.3363 27.4652H74.0708V33.1726ZM74.0708 24.8301H75.9213C77.3894 24.8301 78.1234 23.9975 78.1234 22.3323C78.1234 21.5247 77.9597 20.9294 77.633 20.5464C77.3139 20.1634 76.764 19.972 75.9839 19.972H74.0708V24.8301ZM83.1327 17.3368H87.2985L89.7776 24.4554L92.584 17.3368H96.5868L91.5526 27.8773V35.8077H88.0281V27.8773L83.1327 17.3368ZM97.3042 20.1593V17.3368H109.6V20.1593H105.22V35.8077H101.684V20.1593H97.3042ZM110.62 35.8077V32.5356H113.841V35.8077H110.62ZM115.616 35.8077V17.3368H122.966C124.367 17.3368 125.496 17.7947 126.351 18.7106C127.207 19.6181 127.635 20.7546 127.635 22.1201C127.635 23.4438 127.379 24.4762 126.867 25.2173C126.364 25.9583 125.684 26.387 124.828 26.5036C125.315 26.6034 125.73 26.7699 126.074 27.0031C126.427 27.2279 126.691 27.4985 126.867 27.8149C127.052 28.1313 127.182 28.4517 127.257 28.7766C127.333 29.1013 127.371 29.4426 127.371 29.8005V32.1485C127.371 32.4898 127.371 32.7645 127.371 32.9727C127.379 33.1809 127.392 33.4224 127.408 33.6971C127.426 33.9634 127.45 34.1759 127.484 34.3341C127.526 34.4922 127.576 34.6504 127.635 34.8086C127.694 34.9667 127.773 35.0791 127.874 35.1457C127.975 35.2124 128.092 35.2456 128.227 35.2456V35.8077H124.69C124.128 35.3497 123.847 34.3424 123.847 32.7854V30.6624C123.847 29.8714 123.683 29.2261 123.356 28.7266C123.029 28.2271 122.488 27.9773 121.732 27.9773H119.153V35.8077H115.616ZM119.153 25.3421H121.519C122.24 25.3421 122.836 25.1339 123.306 24.7176C123.784 24.2931 124.023 23.5979 124.023 22.6321C124.023 21.6746 123.805 21.0085 123.368 20.6339C122.932 20.2592 122.29 20.0719 121.443 20.0719H119.153V25.3421ZM130.064 30.8496V17.3368H133.6V30.3377C133.6 31.3616 133.785 32.1151 134.155 32.598C134.532 33.0809 135.136 33.3224 135.967 33.3224C136.831 33.3224 137.44 33.0892 137.792 32.6231C138.144 32.1568 138.32 31.395 138.32 30.3377V17.3368H141.843V30.8496C141.843 34.3798 139.885 36.1449 135.967 36.1449C132.032 36.1449 130.064 34.3798 130.064 30.8496Z" fill="white"/>
<path fill-rule="evenodd" clip-rule="evenodd" d="M136.322 9.01942C134.874 8.69171 135.043 6.59217 136.524 6.49638L157.875 5.11821C158.882 5.05329 159.571 6.10759 159.099 6.99187L151.702 20.882C151.128 21.9598 149.504 21.7052 149.292 20.5042L147.875 12.4365C147.786 11.9288 147.398 11.5238 146.891 11.4093L136.322 9.01942Z" fill="#FF5454"/>
</g>
<defs>
<clipPath id="clip0_0_101">
<rect width="166.25" height="51.1538" fill="white"/>
</clipPath>
</defs>
</svg>
