<svg width="22" height="22" viewBox="0 0 22 22" fill="none" xmlns="http://www.w3.org/2000/svg">
<g clip-path="url(#clip0_64_750)">
<path d="M0.970222 4.3828C0.604987 4.49452 0.437409 4.96718 0.65655 5.28515C0.721003 5.38398 2.25928 6.4539 5.58507 8.71406C8.24483 10.5187 10.4964 12.0355 10.5909 12.0871C10.823 12.2031 11.1796 12.2031 11.4073 12.0828C11.5019 12.0355 13.7534 10.5187 16.4132 8.70976C19.7175 6.46679 21.2773 5.38398 21.346 5.28515C21.5265 5.01874 21.4362 4.62343 21.1526 4.43866C21.0409 4.36562 20.5983 4.36132 11.0636 4.35273C5.58077 4.34843 1.03897 4.36562 0.970222 4.3828Z" fill="#121212"/>
<path d="M0.313672 6.42812C0.236328 6.46679 0.133203 6.56132 0.0859375 6.63867C0 6.77617 0 6.84921 0 11.3352V15.8941L0.128906 16.0445C0.201953 16.1262 0.330859 16.2164 0.4125 16.2422C0.670313 16.3281 0.833594 16.268 1.16875 15.95C1.69727 15.4559 6.81055 10.5144 6.81914 10.4887C6.83203 10.4586 1.08711 6.54843 0.863672 6.43672C0.678906 6.34218 0.494141 6.33789 0.313672 6.42812Z" fill="#121212"/>
<path d="M21.1371 6.43672C20.9266 6.53555 15.1645 10.4543 15.1817 10.4887C15.1903 10.5187 20.4797 15.6277 20.875 15.993C21.2704 16.3539 21.584 16.3711 21.8719 16.0445L22.0008 15.8941V11.3395C22.0008 6.23477 22.0266 6.61289 21.6914 6.44102C21.4938 6.34219 21.3391 6.33789 21.1371 6.43672Z" fill="#121212"/>
<path d="M4.48236 13.8359C1.90424 16.3324 1.50463 16.7363 1.47884 16.8695C1.41439 17.209 1.54759 17.4797 1.83549 17.6C1.9515 17.6516 3.45111 17.6602 11.0093 17.6602C19.5257 17.6602 20.0542 17.6559 20.196 17.5828C20.4796 17.441 20.6128 17.0887 20.5011 16.7879C20.4581 16.6805 14.5972 10.9871 14.5027 10.9656C14.4726 10.957 13.8624 11.3523 13.1449 11.8422C12.4273 12.332 11.7312 12.7789 11.6023 12.8434C11.2628 13.0023 10.7386 13.0023 10.3992 12.8434C10.2703 12.7789 9.57845 12.332 8.86088 11.8422C8.1433 11.3566 7.53314 10.957 7.50736 10.957C7.47728 10.9613 6.11947 12.2547 4.48236 13.8359Z" fill="#121212"/>
</g>
<defs>
<clipPath id="clip0_64_750">
<rect width="22" height="22" fill="white"/>
</clipPath>
</defs>
</svg>
