<svg width="52" height="52" viewBox="0 0 52 52" fill="none" xmlns="http://www.w3.org/2000/svg">
<path d="M5.71143 0.196178C3.0231 0.89616 0.882583 3.05697 0.192748 5.7453C0.0101446 6.496 0 7.02352 0 25.9636C0 44.8732 0.0101446 45.4311 0.192748 46.1818C0.892728 48.8803 3.05354 51.0411 5.75201 51.7411C6.50271 51.9237 7.06067 51.9338 25.9703 51.9338C44.8799 51.9338 45.4378 51.9237 46.1885 51.7411C48.8972 51.0411 51.0478 48.8904 51.7478 46.1818C51.9304 45.4311 51.9405 44.8732 51.9405 25.9636C51.9405 7.05396 51.9304 6.496 51.7478 5.7453C51.0478 3.03668 48.8972 0.886017 46.1885 0.186035C45.4378 -0.00671387 44.9205 -0.00671387 25.9297 0.00343323C7.20269 0.00343323 6.41141 0.0135765 5.71143 0.196178ZM44.7886 3.34102C46.8682 3.64536 48.3392 5.1772 48.5928 7.30757C48.6638 7.84524 48.6841 12.0147 48.674 18.5783L48.6435 28.9867L45.2958 25.9433C43.4596 24.2593 41.7249 22.7477 41.4408 22.5651C39.9699 21.6318 38.2554 21.4999 36.754 22.2202C35.9526 22.5955 36.2164 22.3318 28.5774 30.5692C25.2804 34.1401 22.4501 37.1531 22.2979 37.2647C22.024 37.4574 22.0139 37.4574 21.6487 37.2647C21.4559 37.1632 19.427 35.601 17.1647 33.7952C14.0199 31.3098 12.904 30.4779 12.4779 30.3156C11.362 29.8997 9.98232 29.9606 8.90699 30.4678C8.6128 30.6098 7.23313 31.604 5.83317 32.6895L3.29701 34.6474L3.26657 21.4086C3.25643 12.948 3.27672 7.85538 3.34773 7.30757C3.47961 6.18152 3.87525 5.33951 4.60567 4.59895C5.26507 3.9497 6.17808 3.48304 7.06067 3.35116C7.93311 3.22943 43.906 3.21928 44.7886 3.34102ZM39.3105 25.2433C39.5438 25.3447 41.6133 27.1606 44.2103 29.5142L48.6943 33.6025V38.7864C48.6943 41.637 48.6435 44.3152 48.5928 44.721C48.3189 46.7905 46.7972 48.3122 44.7277 48.5861C43.7132 48.718 8.2273 48.718 7.21284 48.5861C5.14333 48.3122 3.62164 46.7905 3.34773 44.721C3.29701 44.3152 3.24628 42.8442 3.24628 41.4646V38.969L6.60416 36.3618C10.307 33.4909 10.4794 33.3691 10.8649 33.3691C11.1895 33.3691 11.149 33.3387 15.572 36.8488C17.5807 38.4516 19.498 39.9124 19.8328 40.1153C21.5675 41.1399 23.2414 40.9776 24.7225 39.6284C25.037 39.3342 27.5528 36.656 30.3223 33.6735C37.2917 26.136 38.0525 25.3447 38.3975 25.1926C38.7931 25.0201 38.8337 25.0201 39.3105 25.2433Z" fill="#DBDBDB"/>
<path d="M16.3024 8.16989C14.801 8.5351 13.2184 9.6713 12.3866 11.0002C11.2098 12.8669 11.0475 15.3421 11.9706 17.2798C12.5895 18.5783 13.7054 19.7246 14.9633 20.3333C16.0589 20.8811 16.7792 21.0231 18.1487 20.9724C19.569 20.9217 20.4718 20.6376 21.5269 19.9174C26.1731 16.7523 24.9456 9.59014 19.5182 8.21047C18.5951 7.967 17.185 7.95685 16.3024 8.16989ZM18.9704 11.5481C20.6747 12.1973 21.5066 14.1349 20.7762 15.7175C20.4211 16.4986 19.9748 16.9754 19.2545 17.3406C18.1183 17.9087 16.7792 17.716 15.8256 16.8638C14.4662 15.6465 14.3546 13.7799 15.5416 12.4306C15.927 11.9843 16.485 11.6191 17.043 11.4466C17.5198 11.3046 18.4531 11.3553 18.9704 11.5481Z" fill="#DBDBDB"/>
</svg>
