<svg width="24" height="24" viewBox="0 0 24 24" fill="none" xmlns="http://www.w3.org/2000/svg">
<g clip-path="url(#clip0_155_388)">
<path d="M8.32495 0.0750008C3.96089 0.665627 0.562451 4.14844 0.0421384 8.55C0.00932587 8.84531 -0.00473663 9.375 0.0140134 9.97969C0.0468259 11.2594 0.215576 12.0984 0.665576 13.2328C1.71558 15.8953 3.89526 17.9484 6.61401 18.8391C7.64526 19.1766 8.50776 19.3125 9.64214 19.3125C11.6578 19.3125 13.4203 18.7828 15.089 17.6625L15.5765 17.3344L18.8156 20.5734C21.3 23.0531 22.1015 23.8313 22.2656 23.9016C22.5562 24.0328 23.0531 24.0328 23.325 23.9016C23.5546 23.7938 23.8406 23.4984 23.9343 23.2688C24.0328 23.0344 24.0187 22.5188 23.9015 22.2656C23.8312 22.1016 23.0578 21.3047 20.5734 18.8156L17.3343 15.5766L17.6343 15.1359C18.4828 13.8938 19.05 12.4219 19.2421 10.9453C19.3312 10.2516 19.3312 9.06094 19.2421 8.38125C18.8062 5.0625 16.6687 2.18906 13.6312 0.834377C12.75 0.440626 11.9437 0.210939 10.9453 0.0703144C10.3593 -0.014061 8.95308 -0.014061 8.32495 0.0750008ZM11.0859 2.56875C12.5531 2.8875 13.6734 3.50156 14.7468 4.57031C15.4218 5.24531 15.7921 5.75625 16.1718 6.53906C17.7234 9.75938 16.6453 13.6828 13.664 15.6656C12.5062 16.4344 11.325 16.8094 9.91401 16.8609C7.76714 16.9359 5.92026 16.1766 4.40151 14.5922C3.48276 13.6313 2.86401 12.4547 2.55464 11.0625C2.43745 10.5328 2.40464 9.1875 2.49839 8.59688C2.84995 6.40781 4.11558 4.55156 6.0562 3.39844C6.74995 2.98594 7.69683 2.65313 8.60151 2.50313C9.14526 2.41406 10.5375 2.45156 11.0859 2.56875Z" fill="#232323"/>
</g>
<defs>
<clipPath id="clip0_155_388">
<rect width="24" height="24" fill="white"/>
</clipPath>
</defs>
</svg>
