<svg width="38" height="38" viewBox="0 0 38 38" fill="none" xmlns="http://www.w3.org/2000/svg">
<circle cx="19" cy="19" r="19" fill="#698DFF"/>
<path d="M26.3631 14.775C26.3049 15.0666 26.0715 15.543 25.6632 16.2041C25.2743 16.8652 24.9146 17.4486 24.584 17.9541C24.2535 18.4402 24.0784 18.693 24.059 18.7125C23.9423 18.8875 23.884 19.0139 23.884 19.0916C23.884 19.1694 23.9423 19.3055 24.059 19.5C24.059 19.5 24.1173 19.568 24.2339 19.7041C24.3701 19.8402 24.5257 19.9958 24.7007 20.1708C24.8756 20.3458 25.0701 20.55 25.284 20.7833C25.4978 21.0166 25.6923 21.25 25.8673 21.4833C26.0618 21.6972 26.227 21.9208 26.3631 22.1541C26.5187 22.3875 26.6256 22.5819 26.684 22.7375C26.8201 23.2236 26.6256 23.4666 26.1006 23.4666H24.3799C24.2437 23.4666 24.1271 23.4472 24.0298 23.4083C23.9326 23.3694 23.8256 23.3014 23.709 23.2041C23.5923 23.1069 23.4853 23 23.3882 22.8833C23.2909 22.7666 23.1451 22.6014 22.9506 22.3875C22.7562 22.1736 22.5617 21.9694 22.3673 21.775C21.5896 21.0361 21.0159 20.6666 20.6465 20.6666C20.4132 20.6666 20.277 20.7347 20.2382 20.8708C20.1993 21.0069 20.1798 21.3958 20.1798 22.0375C20.1993 22.3486 20.209 22.6014 20.209 22.7958C20.209 23.0291 20.1312 23.2041 19.9756 23.3208C19.8201 23.418 19.4798 23.4666 18.9548 23.4666C18.0409 23.4666 17.1173 23.1944 16.184 22.65C15.2507 22.1055 14.434 21.3277 13.734 20.3166C13.0729 19.4222 12.5187 18.5375 12.0715 17.6625C11.6437 16.768 11.3618 16.0875 11.2257 15.6208C11.0895 15.1541 11.0215 14.8236 11.0215 14.6291C11.0215 14.2986 11.2159 14.1333 11.6048 14.1333H13.3257C13.5395 14.1333 13.6951 14.1819 13.7923 14.2791C13.909 14.3764 14.0062 14.5514 14.084 14.8041C14.4923 15.9903 14.9881 17.05 15.5715 17.9833C16.1743 18.9166 16.6312 19.3833 16.9423 19.3833C17.059 19.3833 17.1368 19.3444 17.1756 19.2666C17.234 19.1694 17.2631 18.9944 17.2631 18.7416V16.2041C17.2437 15.9319 17.1951 15.6986 17.1173 15.5041C17.0395 15.3097 16.9618 15.1736 16.884 15.0958C16.8062 14.9986 16.7284 14.9014 16.6507 14.8041C16.5923 14.7069 16.5631 14.6194 16.5631 14.5416C16.5631 14.4639 16.5826 14.3958 16.6215 14.3375C16.6604 14.2791 16.709 14.2305 16.7673 14.1916C16.8451 14.1527 16.9229 14.1333 17.0007 14.1333H19.7132C20.0243 14.1333 20.1798 14.3472 20.1798 14.775V18.1583C20.1798 18.4889 20.2673 18.6541 20.4423 18.6541C20.6368 18.6541 20.909 18.4791 21.259 18.1291C21.6284 17.7208 21.9882 17.225 22.3381 16.6416C22.6881 16.0583 22.9506 15.5722 23.1257 15.1833L23.3882 14.6291C23.5243 14.2986 23.7674 14.1333 24.1173 14.1333H25.8382C26.3049 14.1333 26.4798 14.3472 26.3631 14.775Z" fill="white"/>
</svg>
